<?xml version="1.0" encoding="UTF-8"?>
<svg version="1.1" xmlns="http://www.w3.org/2000/svg" width="360" height="360">
<path d="M0 0 C10.55808656 -0.3690205 10.55808656 -0.3690205 15 2 C15.33 1.34 15.66 0.68 16 0 C16.99 0.66 17.98 1.32 19 2 C19 2.66 19 3.32 19 4 C19.7425 4.12375 20.485 4.2475 21.25 4.375 C24 5 24 5 25.9375 6 C28.09738865 7.16975983 28.09738865 7.16975983 31.125 7.5 C34 8 34 8 36 10 C37.53927681 10.8248355 39.10490365 11.60102095 40.68359375 12.34765625 C41.61107422 12.78787109 42.53855469 13.22808594 43.49414062 13.68164062 C44.46544922 14.13732422 45.43675781 14.59300781 46.4375 15.0625 C47.40494141 15.52205078 48.37238281 15.98160156 49.36914062 16.45507812 C54.59640593 18.94322471 54.59640593 18.94322471 60 21 C61.56819626 21.67440565 63.13037099 22.3629203 64.6875 23.0625 C65.49574219 23.42472656 66.30398437 23.78695312 67.13671875 24.16015625 C67.75160156 24.43730469 68.36648437 24.71445313 69 25 C69.495 24.505 69.495 24.505 70 24 C75.56724283 23.55462057 78.94614605 24.83406259 84 27 C87.71000718 27.41831404 87.71000718 27.41831404 91 27 C91.66 26.34 92.32 25.68 93 25 C94.32 25 95.64 25 97 25 C97.33 23.35 97.66 21.7 98 20 C98.66 20 99.32 20 100 20 C100.33 18.35 100.66 16.7 101 15 C102.26457031 14.80083984 102.26457031 14.80083984 103.5546875 14.59765625 C104.65039062 14.42105469 105.74609375 14.24445313 106.875 14.0625 C108.51082031 13.80146484 108.51082031 13.80146484 110.1796875 13.53515625 C112.93821546 13.14448841 112.93821546 13.14448841 115 12 C115 15.96 115 19.92 115 24 C116.44632813 23.855625 117.89265625 23.71125 119.3828125 23.5625 C121.29686013 23.37484827 123.21092347 23.1873567 125.125 23 C126.07632813 22.90460938 127.02765625 22.80921875 128.0078125 22.7109375 C132.69100382 22.25562723 137.2876326 21.87306754 142 22 C142 21.34 142 20.68 142 20 C142.68964844 20.01160156 143.37929687 20.02320313 144.08984375 20.03515625 C150.73880952 20.09900091 157.46604293 20.1516251 163.953125 18.50390625 C170.33742222 16.93219949 176.57139338 16.74222914 183 18 C183.33 18.99 183.66 19.98 184 21 C185.65 21.33 187.3 21.66 189 22 C189 22.99 189 23.98 189 25 C188.1135228 25.13336761 187.22704559 25.26673523 186.31370544 25.40414429 C177.94169963 26.66452119 169.57037658 27.92932195 161.19978237 29.19904137 C156.89681506 29.85159207 152.59360692 30.50245585 148.28979492 31.14941406 C144.13299586 31.77433734 139.97690002 32.40375752 135.82124519 33.03624344 C134.23914663 33.2762394 132.65680517 33.51463995 131.07421684 33.75138474 C128.85015616 34.0843739 126.62704281 34.42313059 124.40405273 34.76318359 C122.50876076 35.04964249 122.50876076 35.04964249 120.57518005 35.34188843 C116.24895224 36.13825128 111.95403967 37.02298016 108 39 C107.59270772 41.32156597 107.25561323 43.6568787 107 46 C107.75619629 45.9592334 108.51239258 45.9184668 109.29150391 45.87646484 C112.73550524 45.69748026 116.18011667 45.5360785 119.625 45.375 C120.81480469 45.31054688 122.00460938 45.24609375 123.23046875 45.1796875 C124.38417969 45.128125 125.53789062 45.0765625 126.7265625 45.0234375 C128.31331787 44.94488525 128.31331787 44.94488525 129.93212891 44.86474609 C133.27619596 45.01217671 135.88767111 45.80483307 139 47 C139 47.99 139 48.98 139 50 C129.76 51.32 120.52 52.64 111 54 C111 54.66 111 55.32 111 56 C110.34 56 109.68 56 109 56 C109 56.99 109 57.98 109 59 C104.63668713 60.45443762 100.92027885 61.08323052 96.3125 61.25 C93.50657334 61.37445813 93.50657334 61.37445813 91 62 C88.38025574 64.88274079 88.38025574 64.88274079 87 68 C86.34 68 85.68 68 85 68 C84.41371826 67.0807373 83.82743652 66.16147461 83.22338867 65.21435547 C79.53366048 59.88011133 74.07211733 57.78195796 68.3125 55.125 C67.68672058 54.83185913 67.06094116 54.53871826 66.41619873 54.23669434 C51.91678252 47.62363189 38.0001678 47.72261806 22.36376953 48.90722656 C18.79242868 49.00572486 15.51651919 48.59848505 12 48 C11.67 47.01 11.34 46.02 11 45 C11.33 44.67 11.66 44.34 12 44 C10.02 44 8.04 44 6 44 C6.495 45.98 6.495 45.98 7 48 C8.32 48.33 9.64 48.66 11 49 C11 49.66 11 50.32 11 51 C9.25021843 51.16894443 7.50016388 51.33506309 5.75 51.5 C4.77546875 51.5928125 3.8009375 51.685625 2.796875 51.78125 C0.53697847 51.95800168 -1.73320193 52 -4 52 C-5.75 50 -5.75 50 -7 48 C-7.99 48.495 -7.99 48.495 -9 49 C-9 48.34 -9 47.68 -9 47 C-11.31317961 47.30742903 -13.62553352 47.62107702 -15.9375 47.9375 C-17.22527344 48.11152344 -18.51304688 48.28554687 -19.83984375 48.46484375 C-22.85466313 48.66162423 -22.85466313 48.66162423 -24 50 C-26.19050021 49.90982004 -28.378466 49.75333792 -30.5625 49.5625 C-31.76003906 49.46066406 -32.95757812 49.35882813 -34.19140625 49.25390625 C-35.11824219 49.17011719 -36.04507813 49.08632812 -37 49 C-36.67 47.35 -36.34 45.7 -36 44 C-35.67 44.66 -35.34 45.32 -35 46 C-34.45601562 45.68933594 -33.91203125 45.37867188 -33.3515625 45.05859375 C-30.66037171 43.84711085 -28.29598166 43.46712147 -25.375 43.0625 C-16.97849788 41.78827663 -16.97849788 41.78827663 -9 39 C-7.30117552 36.50240018 -7.30117552 36.50240018 -6 34 C-2.3125 32.6875 -2.3125 32.6875 1 32 C1 32.66 1 33.32 1 34 C1.78375 34.12375 2.5675 34.2475 3.375 34.375 C6 35 6 35 8 37 C10.31 35.35 12.62 33.7 15 32 C14.15695313 31.65066406 13.31390625 31.30132812 12.4453125 30.94140625 C11.34960938 30.48636719 10.25390625 30.03132813 9.125 29.5625 C8.03445312 29.11003906 6.94390625 28.65757812 5.8203125 28.19140625 C2.80988114 26.91968663 -0.0781763 25.46091185 -3 24 C-3 23.34 -3 22.68 -3 22 C-3.66 21.67 -4.32 21.34 -5 21 C-5 20.34 -5 19.68 -5 19 C-5.66 18.34 -6.32 17.68 -7 17 C-7.50312928 12.63954624 -7.24536764 10.44984067 -5.125 6.5625 C-4.073125 5.2940625 -4.073125 5.2940625 -3 4 C-2.34 4 -1.68 4 -1 4 C-0.67 2.68 -0.34 1.36 0 0 Z M6 5 C6.33 5.99 6.66 6.98 7 8 C7.99 8 8.98 8 10 8 C10 8.99 10 9.98 10 11 C6.37 10.01 2.74 9.02 -1 8 C1.03802135 12.06024321 1.03802135 12.06024321 5 14 C5.66 13.67 6.32 13.34 7 13 C7.33 13.99 7.66 14.98 8 16 C9.64178688 16.72578101 11.31494335 17.38128657 13 18 C16.02424933 19.72581657 18.99105575 21.53261718 21.96484375 23.34375 C24.93026928 24.96194874 27.76935355 26.03706514 31 27 C31 27.66 31 28.32 31 29 C35.78104597 30.98238491 38.94679665 30.97176988 44 30 C44.66 30 45.32 30 46 30 C46 29.34 46 28.68 46 28 C46.7425 28.185625 47.485 28.37125 48.25 28.5625 C50.96899854 28.99506795 52.46184401 28.99713271 55 28 C55.33 27.34 55.66 26.68 56 26 C56.66 25.67 57.32 25.34 58 25 C55.77675074 23.8206851 53.54753361 22.65659082 51.3125 21.5 C50.68666016 21.16613281 50.06082031 20.83226562 49.41601562 20.48828125 C45.66833612 18.5653881 43.14268269 17.93392851 39 18 C35.84375 16.7578125 35.84375 16.7578125 32.5 15.125 C28.70036058 13.28732392 24.93806343 11.51887983 21 10 C19.38544922 9.36191406 19.38544922 9.36191406 17.73828125 8.7109375 C16.60777344 8.27007812 15.47726563 7.82921875 14.3125 7.375 C13.17425781 6.92898437 12.03601563 6.48296875 10.86328125 6.0234375 C8.19289699 4.88780649 8.19289699 4.88780649 6 5 Z M135 25 C139 26 139 26 139 26 Z M119 27 C119 27.33 119 27.66 119 28 C120.98 28 122.96 28 125 28 C125 27.67 125 27.34 125 27 C123.02 27 121.04 27 119 27 Z M80 28 C80 28.66 80 29.32 80 30 C80.66 30 81.32 30 82 30 C82 29.34 82 28.68 82 28 C81.34 28 80.68 28 80 28 Z M110 28 C110.66 28.66 111.32 29.32 112 30 C112.33 29.34 112.66 28.68 113 28 C112.01 28 111.02 28 110 28 Z M70 29 C69.22757731 30.83700789 69.22757731 30.83700789 69 33 C70.35444301 34.77190909 70.35444301 34.77190909 72 36 C74.36980013 33.04622502 74.36980013 33.04622502 74 29 C72.68 29 71.36 29 70 29 Z M83 29 C82.01 29.66 81.02 30.32 80 31 C80 32.32 80 33.64 80 35 C81.98 35.66 83.96 36.32 86 37 C86.99 35.02 87.98 33.04 89 31 C88.38125 30.855625 87.7625 30.71125 87.125 30.5625 C85 30 85 30 83 29 Z M104 29 C104 29.33 104 29.66 104 30 C105.65 30 107.3 30 109 30 C109 29.67 109 29.34 109 29 C107.35 29 105.7 29 104 29 Z M97 31 C99.31 31 101.62 31 104 31 C103.67 30.34 103.34 29.68 103 29 C100.53721199 29 99.14775881 29.85452863 97 31 Z M79 38 C83 39 83 39 83 39 Z M-3 40 C-3 40.99 -3 41.98 -3 43 C-1.68 42.67 -0.36 42.34 1 42 C-0.32 41.34 -1.64 40.68 -3 40 Z M57 40 C58.485 40.99 58.485 40.99 60 42 C60 41.34 60 40.68 60 40 C59.01 40 58.02 40 57 40 Z M86 40 C85.34 41.32 84.68 42.64 84 44 C85.32 43.34 86.64 42.68 88 42 C87.34 41.34 86.68 40.68 86 40 Z M61 41 C61 41.66 61 42.32 61 43 C63.97 43.495 63.97 43.495 67 44 C64.1315587 41.89767656 64.1315587 41.89767656 61 41 Z M69 44 C68.67 44.66 68.34 45.32 68 46 C69.98 46.66 71.96 47.32 74 48 C74 47.34 74 46.68 74 46 C71.525 45.01 71.525 45.01 69 44 Z M89 44 C89 44.66 89 45.32 89 46 C89.99 45.67 90.98 45.34 92 45 C91.01 44.67 90.02 44.34 89 44 Z M76 47 C76.33 47.99 76.66 48.98 77 50 C77.99 50 78.98 50 80 50 C80 49.34 80 48.68 80 48 C78.68 47.67 77.36 47.34 76 47 Z M81 49 C81 49.99 81 50.98 81 52 C81.99 51.67 82.98 51.34 84 51 C83.01 50.34 82.02 49.68 81 49 Z M97 50 C97 50.66 97 51.32 97 52 C98.32 52.33 99.64 52.66 101 53 C100.02149805 51.97895449 99.02019573 50.9793879 98 50 C97.67 50 97.34 50 97 50 Z M84 51 C84.33 51.99 84.66 52.98 85 54 C85 53.01 85 52.02 85 51 C84.67 51 84.34 51 84 51 Z M87 53 C87 53.66 87 54.32 87 55 C89.39719432 55.67958603 89.39719432 55.67958603 92 56 C92.66 55.34 93.32 54.68 94 54 C91.69 53.67 89.38 53.34 87 53 Z " fill="#4B4B4B" transform="translate(93,132)"/>
<path d="M0 0 C0.8559375 0.00902344 1.711875 0.01804688 2.59375 0.02734375 C3.2228125 0.03894531 3.851875 0.05054688 4.5 0.0625 C4.17 1.0525 3.84 2.0425 3.5 3.0625 C-2.59029048 5.39679115 -9.00109414 6.50560722 -15.5 6.0625 C-15.5 6.7225 -15.5 7.3825 -15.5 8.0625 C-16.04901474 8.14575531 -16.59802948 8.22901062 -17.16368103 8.31478882 C-22.8587769 9.18021446 -28.55185113 10.05809665 -34.24389648 10.94335938 C-36.37067835 11.27243257 -38.49796084 11.59828662 -40.62573242 11.92089844 C-43.67763279 12.38419041 -46.72756704 12.85889171 -49.77734375 13.3359375 C-50.73462875 13.47873138 -51.69191376 13.62152527 -52.6782074 13.76864624 C-53.55904495 13.90864044 -54.43988251 14.04863464 -55.34741211 14.19287109 C-56.12684677 14.31278412 -56.90628143 14.43269714 -57.70933533 14.5562439 C-58.30025467 14.72330841 -58.89117401 14.89037292 -59.5 15.0625 C-59.83 15.7225 -60.16 16.3825 -60.5 17.0625 C-61.16 17.0625 -61.82 17.0625 -62.5 17.0625 C-62.83 19.3725 -63.16 21.6825 -63.5 24.0625 C-62.36570557 24.0013501 -62.36570557 24.0013501 -61.20849609 23.93896484 C-57.76449476 23.75998026 -54.31988333 23.5985785 -50.875 23.4375 C-49.68519531 23.37304688 -48.49539062 23.30859375 -47.26953125 23.2421875 C-45.53896484 23.16484375 -45.53896484 23.16484375 -43.7734375 23.0859375 C-42.18668213 23.00738525 -42.18668213 23.00738525 -40.56787109 22.92724609 C-37.22380404 23.07467671 -34.61232889 23.86733307 -31.5 25.0625 C-31.5 26.0525 -31.5 27.0425 -31.5 28.0625 C-40.74 29.3825 -49.98 30.7025 -59.5 32.0625 C-59.5 32.7225 -59.5 33.3825 -59.5 34.0625 C-60.16 34.0625 -60.82 34.0625 -61.5 34.0625 C-61.5 35.0525 -61.5 36.0425 -61.5 37.0625 C-69.272544 40.20852971 -78.01859183 39.65031828 -85.8515625 36.875 C-88.45948419 35.68896843 -90.99354254 34.44872443 -93.5 33.0625 C-93.5 32.0725 -93.5 31.0825 -93.5 30.0625 C-87.5 31.5625 -87.5 31.5625 -81.5 33.0625 C-81.5 33.7225 -81.5 34.3825 -81.5 35.0625 C-78.86 34.4025 -76.22 33.7425 -73.5 33.0625 C-73.83 32.4025 -74.16 31.7425 -74.5 31.0625 C-73.18 30.7325 -71.86 30.4025 -70.5 30.0625 C-71.0053125 29.65257812 -71.510625 29.24265625 -72.03125 28.8203125 C-72.6809375 28.28148437 -73.330625 27.74265625 -74 27.1875 C-74.97453125 26.38699219 -74.97453125 26.38699219 -75.96875 25.5703125 C-76.4740625 25.07273438 -76.979375 24.57515625 -77.5 24.0625 C-77.5 23.4025 -77.5 22.7425 -77.5 22.0625 C-78.49 21.7325 -79.48 21.4025 -80.5 21.0625 C-80.17 20.0725 -79.84 19.0825 -79.5 18.0625 C-80.49 17.7325 -81.48 17.4025 -82.5 17.0625 C-82.17 16.0725 -81.84 15.0825 -81.5 14.0625 C-79.85 13.7325 -78.2 13.4025 -76.5 13.0625 C-76.83 12.4025 -77.16 11.7425 -77.5 11.0625 C-54.28633989 7.09982526 -54.28633989 7.09982526 -42.625 5.62890625 C-35.837087 4.73308405 -29.08454174 3.57641628 -22.32836914 2.47070312 C-6.59700924 -0.09162513 -6.59700924 -0.09162513 0 0 Z " fill="#3B3B3B" transform="translate(263.5,153.9375)"/>
<path d="M0 0 C0.57621094 0.4846875 1.15242188 0.969375 1.74609375 1.46875 C4.12487922 3.08483995 5.25157442 3.370015 8.0625 3.5 C12.03024195 4.00384025 12.62839254 4.12910676 15 7 C15.99 7 16.98 7 18 7 C19 8 20 9 21 10 C23.10332891 10.71447643 23.10332891 10.71447643 25 11 C25 11.66 25 12.32 25 13 C25.70125 13.268125 26.4025 13.53625 27.125 13.8125 C30.1649824 15.0681449 33.0727774 16.50235123 36 18 C36 18.66 36 19.32 36 20 C37.32 20.33 38.64 20.66 40 21 C40 21.66 40 22.32 40 23 C40.59167969 23.18175781 41.18335938 23.36351562 41.79296875 23.55078125 C46.18489998 24.94788825 50.21742209 26.28127213 54 29 C54.495 29.99 54.495 29.99 55 31 C57.01669827 32.13350534 57.01669827 32.13350534 59 33 C58.67 34.32 58.34 35.64 58 37 C48.88940806 37.15351736 39.94114664 36.77760309 30.875 35.875 C29.06902344 35.73578125 29.06902344 35.73578125 27.2265625 35.59375 C24.02492051 35.27071437 21.08075968 34.9309023 18 34 C15.6953125 30.8828125 15.6953125 30.8828125 15 28 C17.97 26.68 20.94 25.36 24 24 C23.03578125 23.66226563 22.0715625 23.32453125 21.078125 22.9765625 C19.80203525 22.52617788 18.52599624 22.07564947 17.25 21.625 C16.61578125 21.40328125 15.9815625 21.1815625 15.328125 20.953125 C12.10618127 19.81201993 9.01249487 18.61782132 6 17 C5.2575 16.62875 4.515 16.2575 3.75 15.875 C2.88375 15.441875 2.88375 15.441875 2 15 C2 14.34 2 13.68 2 13 C1.34 12.67 0.68 12.34 0 12 C0 8 0 4 0 0 Z " fill="#232323" transform="translate(88,141)"/>
<path d="M0 0 C10.55808656 -0.3690205 10.55808656 -0.3690205 15 2 C15.33 1.34 15.66 0.68 16 0 C16.99 0.66 17.98 1.32 19 2 C19 2.66 19 3.32 19 4 C19.7425 4.12375 20.485 4.2475 21.25 4.375 C24 5 24 5 25.9375 6 C28.09738865 7.16975983 28.09738865 7.16975983 31.125 7.5 C34 8 34 8 36 10 C37.53927681 10.8248355 39.10490365 11.60102095 40.68359375 12.34765625 C41.61107422 12.78787109 42.53855469 13.22808594 43.49414062 13.68164062 C44.46544922 14.13732422 45.43675781 14.59300781 46.4375 15.0625 C47.40494141 15.52205078 48.37238281 15.98160156 49.36914062 16.45507812 C54.59640593 18.94322471 54.59640593 18.94322471 60 21 C61.56819626 21.67440565 63.13037099 22.3629203 64.6875 23.0625 C65.49574219 23.42472656 66.30398437 23.78695312 67.13671875 24.16015625 C67.75160156 24.43730469 68.36648437 24.71445313 69 25 C69.495 24.505 69.495 24.505 70 24 C72.33297433 23.95907063 74.66705225 23.95758277 77 24 C77 24.99 77 25.98 77 27 C77.495 27.99 77.495 27.99 78 29 C78.41527201 33.67181016 77.69993991 36.17508513 75 40 C68.41071429 38.53571429 68.41071429 38.53571429 66.5625 36.125 C66 34 66 34 66 30 C64.68 29.67 63.36 29.34 62 29 C63.65 29 65.3 29 67 29 C67 28.01 67 27.02 67 26 C66.01 26.66 65.02 27.32 64 28 C60.86328125 28.4140625 60.86328125 28.4140625 57.3125 28.625 C56.13300781 28.69976562 54.95351562 28.77453125 53.73828125 28.8515625 C52.83464844 28.90054688 51.93101562 28.94953125 51 29 C51.639375 28.896875 52.27875 28.79375 52.9375 28.6875 C53.618125 28.460625 54.29875 28.23375 55 28 C55.495 26.515 55.495 26.515 56 25 C54.13308826 23.98498002 52.25604656 22.98857921 50.375 22 C49.33085937 21.443125 48.28671875 20.88625 47.2109375 20.3125 C43.85853405 18.9421745 41.58045064 18.7419495 38 19 C38 18.34 38 17.68 38 17 C37.360625 16.896875 36.72125 16.79375 36.0625 16.6875 C31.96052405 15.76664826 27.86598565 14.6694029 24 13 C23.67 12.34 23.34 11.68 23 11 C20.67843403 10.59270772 18.3431213 10.25561323 16 10 C16 9.34 16 8.68 16 8 C15.071875 7.855625 14.14375 7.71125 13.1875 7.5625 C10 7 10 7 7 6 C7 6.66 7 7.32 7 8 C7.99 8 8.98 8 10 8 C10 8.99 10 9.98 10 11 C7.36 10.67 4.72 10.34 2 10 C2.33 10.33 2.66 10.66 3 11 C2.67 11.66 2.34 12.32 2 13 C-2.875 12.125 -2.875 12.125 -4 11 C-4.33 13.31 -4.66 15.62 -5 18 C-5.66 17.67 -6.32 17.34 -7 17 C-7.45374191 11.32822615 -6.65083143 8.4024732 -3 4 C-2.34 4 -1.68 4 -1 4 C-0.67 2.68 -0.34 1.36 0 0 Z M70 29 C69.22757731 30.83700789 69.22757731 30.83700789 69 33 C70.35444301 34.77190909 70.35444301 34.77190909 72 36 C74.36980013 33.04622502 74.36980013 33.04622502 74 29 C72.68 29 71.36 29 70 29 Z " fill="#8F8F8F" transform="translate(93,132)"/>
<path d="M0 0 C1.98 0.66 3.96 1.32 6 2 C2.7321794 4.17854707 -0.38058265 5.49760034 -4 7 C-3.34 7.66 -2.68 8.32 -2 9 C-2 9.99 -2 10.98 -2 12 C-0.78183594 12.06058594 0.43632813 12.12117187 1.69140625 12.18359375 C3.31511277 12.26806403 4.93881022 12.35270872 6.5625 12.4375 C7.76229492 12.49647461 7.76229492 12.49647461 8.98632812 12.55664062 C13.71371506 12.80748156 18.32476901 13.25321814 23 14 C23 14.33 23 14.66 23 15 C29.93 15.495 29.93 15.495 37 16 C37 16.33 37 16.66 37 17 C32.42871289 17.16865537 27.85723555 17.3290954 23.28540039 17.48217773 C21.73258861 17.53529982 20.17984974 17.59060264 18.62719727 17.64819336 C16.38573934 17.73094381 14.14412978 17.80565221 11.90234375 17.87890625 C11.21663803 17.90594131 10.53093231 17.93297638 9.82444763 17.96083069 C5.39885224 18.0955534 1.34510647 17.73365356 -3 17 C-3.495 15.515 -3.495 15.515 -4 14 C-3.67 13.67 -3.34 13.34 -3 13 C-4.98 13 -6.96 13 -9 13 C-8.505 14.98 -8.505 14.98 -8 17 C-6.68 17.33 -5.36 17.66 -4 18 C-4 18.66 -4 19.32 -4 20 C-5.74978157 20.16894443 -7.49983612 20.33506309 -9.25 20.5 C-10.22453125 20.5928125 -11.1990625 20.685625 -12.203125 20.78125 C-14.46302153 20.95800168 -16.73320193 21 -19 21 C-20.75 19 -20.75 19 -22 17 C-22.66 17.33 -23.32 17.66 -24 18 C-24 17.34 -24 16.68 -24 16 C-26.31317961 16.30742903 -28.62553352 16.62107702 -30.9375 16.9375 C-32.22527344 17.11152344 -33.51304688 17.28554687 -34.83984375 17.46484375 C-37.85466313 17.66162423 -37.85466313 17.66162423 -39 19 C-41.19050021 18.90982004 -43.378466 18.75333792 -45.5625 18.5625 C-46.76003906 18.46066406 -47.95757812 18.35882813 -49.19140625 18.25390625 C-50.11824219 18.17011719 -51.04507813 18.08632812 -52 18 C-51.67 16.35 -51.34 14.7 -51 13 C-50.67 13.66 -50.34 14.32 -50 15 C-49.45601562 14.68933594 -48.91203125 14.37867188 -48.3515625 14.05859375 C-45.66037171 12.84711085 -43.29598166 12.46712147 -40.375 12.0625 C-31.97849788 10.78827663 -31.97849788 10.78827663 -24 8 C-22.30117552 5.50240018 -22.30117552 5.50240018 -21 3 C-17.3125 1.6875 -17.3125 1.6875 -14 1 C-14 1.66 -14 2.32 -14 3 C-13.21625 3.12375 -12.4325 3.2475 -11.625 3.375 C-9 4 -9 4 -7 6 C-5.83054208 5.19152271 -4.66449539 4.37810888 -3.5 3.5625 C-2.8503125 3.11003906 -2.200625 2.65757812 -1.53125 2.19140625 C-1.0259375 1.79824219 -0.520625 1.40507812 0 1 C0 0.67 0 0.34 0 0 Z M-18 9 C-18 9.99 -18 10.98 -18 12 C-16.68 11.67 -15.36 11.34 -14 11 C-15.32 10.34 -16.64 9.68 -18 9 Z " fill="#989898" transform="translate(108,163)"/>
<path d="M0 0 C0.495 1.485 0.495 1.485 1 3 C2.65 3.33 4.3 3.66 6 4 C6 4.99 6 5.98 6 7 C1.83491163 7.67678186 -2.33228675 8.33959148 -6.5 9 C-7.67304688 9.19078125 -8.84609375 9.3815625 -10.0546875 9.578125 C-16.11308323 10.53113107 -21.86677782 11.24289989 -28 11 C-28 10.67 -28 10.34 -28 10 C-26.31970703 9.69255859 -26.31970703 9.69255859 -24.60546875 9.37890625 C-23.13279176 9.10688311 -21.66013664 8.83474151 -20.1875 8.5625 C-19.44951172 8.42779297 -18.71152344 8.29308594 -17.95117188 8.15429688 C-14.88684924 7.58580263 -11.96071047 6.98690349 -9 6 C-8.67 5.34 -8.34 4.68 -8 4 C-10.91706203 4.30911254 -13.8336109 4.62215425 -16.75 4.9375 C-17.575 5.02451172 -18.4 5.11152344 -19.25 5.20117188 C-20.04921875 5.28818359 -20.8484375 5.37519531 -21.671875 5.46484375 C-22.4050293 5.543396 -23.13818359 5.62194824 -23.89355469 5.70288086 C-25.98156073 5.9973991 -27.95734666 6.48499372 -30 7 C-31.47856114 7.04232018 -32.9589017 7.04100099 -34.4375 7 C-38.96017264 6.94801526 -42.70372689 7.56790896 -47 9 C-52.78532276 10.56329234 -58.00951884 11.21783568 -64 11 C-64 10.01 -64 9.02 -64 8 C-64.66 7.34 -65.32 6.68 -66 6 C-62.95872183 5.66274935 -59.91705809 5.33007668 -56.875 5 C-56.0190625 4.90460938 -55.163125 4.80921875 -54.28125 4.7109375 C-49.82977526 4.23154791 -45.48558075 3.88234542 -41 4 C-41 3.34 -41 2.68 -41 2 C-40.31035156 2.01160156 -39.62070313 2.02320313 -38.91015625 2.03515625 C-31.4219505 2.10705946 -24.27687718 1.82275176 -17 0 C-11.0945916 -0.99903526 -5.90666096 -0.96654452 0 0 Z " fill="#AFAFAF" transform="translate(276,150)"/>
<path d="M0 0 C0.33 0 0.66 0 1 0 C1 3.96 1 7.92 1 12 C4.3 12.33 7.6 12.66 11 13 C11 13.33 11 13.66 11 14 C7.05432929 14.57872915 3.10740632 15.14795072 -0.84082031 15.70898438 C-2.83207841 15.99385951 -4.82230521 16.28591386 -6.8125 16.578125 C-13.92751279 17.58428842 -20.81180357 18.30524927 -28 18 C-28 17.34 -28 16.68 -28 16 C-20.57142857 13.85714286 -20.57142857 13.85714286 -17 13 C-16.67 11.35 -16.34 9.7 -16 8 C-15.34 8 -14.68 8 -14 8 C-13.67 6.35 -13.34 4.7 -13 3 C-12.14535156 2.86722656 -11.29070312 2.73445312 -10.41015625 2.59765625 C-9.30542969 2.42105469 -8.20070312 2.24445313 -7.0625 2.0625 C-5.96035156 1.88847656 -4.85820312 1.71445313 -3.72265625 1.53515625 C-1.09573071 1.28154864 -1.09573071 1.28154864 0 0 Z " fill="#343434" transform="translate(207,144)"/>
<path d="M0 0 C2.64 0.33 5.28 0.66 8 1 C8 1.66 8 2.32 8 3 C8.98097656 3.47308594 9.96195313 3.94617188 10.97265625 4.43359375 C18.8327449 8.26941124 26.43217888 12.33825324 33.89013672 16.90820312 C38.83361202 19.93194668 43.83519994 22.52150992 49.08203125 24.97265625 C51 26 51 26 53 28 C53.66 28.33 54.32 28.66 55 29 C56.625 30.4375 56.625 30.4375 58 32 C58 32.66 58 33.32 58 34 C54.7 33.01 51.4 32.02 48 31 C48 30.34 48 29.68 48 29 C45.69 28.67 43.38 28.34 41 28 C41 27.01 41 26.02 41 25 C38.69 24.67 36.38 24.34 34 24 C34 23.34 34 22.68 34 22 C33.443125 21.896875 32.88625 21.79375 32.3125 21.6875 C29.52870742 20.85988599 27.40148127 19.62262248 25 18 C24.67 17.34 24.34 16.68 24 16 C22.824375 16.0928125 22.824375 16.0928125 21.625 16.1875 C20.75875 16.125625 19.8925 16.06375 19 16 C18.34 15.01 17.68 14.02 17 13 C15.00854609 11.98308736 13.00812926 10.98357352 11 10 C9.98131338 9.01904252 8.97648017 8.02297922 8 7 C7.01 6.67 6.02 6.34 5 6 C4.67 5.67 4.34 5.34 4 5 C3.319375 4.34 2.63875 3.68 1.9375 3 C0 1 0 1 0 0 Z " fill="#A0A0A0" transform="translate(112,184)"/>
<path d="M0 0 C1.11084961 0.42249023 1.11084961 0.42249023 2.24414062 0.85351562 C4.05992655 1.54468575 5.87389899 2.24061689 7.6875 2.9375 C7.6875 2.2775 7.6875 1.6175 7.6875 0.9375 C12.40815967 2.48019924 17.10414092 4.01544619 21.6875 5.9375 C21.6875 6.5975 21.6875 7.2575 21.6875 7.9375 C12.57690806 8.09101736 3.62864664 7.71510309 -5.4375 6.8125 C-6.64148438 6.7196875 -7.84546875 6.626875 -9.0859375 6.53125 C-12.28757949 6.20821437 -15.23174032 5.8684023 -18.3125 4.9375 C-20.6171875 1.8203125 -20.6171875 1.8203125 -21.3125 -1.0625 C-20.09023359 -1.59932668 -18.85921915 -2.11625532 -17.625 -2.625 C-16.94050781 -2.91503906 -16.25601563 -3.20507812 -15.55078125 -3.50390625 C-10.25701947 -4.82503703 -4.898405 -1.88669576 0 0 Z " fill="#1D1D1D" transform="translate(124.3125,170.0625)"/>
<path d="M0 0 C1.98 0.66 3.96 1.32 6 2 C2.7321794 4.17854707 -0.38058265 5.49760034 -4 7 C-3.34 7.66 -2.68 8.32 -2 9 C-2 9.99 -2 10.98 -2 12 C-0.78183594 12.06058594 0.43632813 12.12117187 1.69140625 12.18359375 C3.31511277 12.26806403 4.93881022 12.35270872 6.5625 12.4375 C7.36236328 12.47681641 8.16222656 12.51613281 8.98632812 12.55664062 C13.71371506 12.80748156 18.32476901 13.25321814 23 14 C23 14.33 23 14.66 23 15 C29.93 15.495 29.93 15.495 37 16 C37 16.33 37 16.66 37 17 C32.42871289 17.16865537 27.85723555 17.3290954 23.28540039 17.48217773 C21.73258861 17.53529982 20.17984974 17.59060264 18.62719727 17.64819336 C16.38573934 17.73094381 14.14412978 17.80565221 11.90234375 17.87890625 C11.21663803 17.90594131 10.53093231 17.93297638 9.82444763 17.96083069 C5.39885224 18.0955534 1.34510647 17.73365356 -3 17 C-3.33 16.01 -3.66 15.02 -4 14 C-3.67 13.67 -3.34 13.34 -3 13 C-4.98 13 -6.96 13 -9 13 C-8.67 13.99 -8.34 14.98 -8 16 C-8.66 16 -9.32 16 -10 16 C-10 12.37 -10 8.74 -10 5 C-12.413125 4.938125 -12.413125 4.938125 -14.875 4.875 C-15.77992187 4.85179687 -16.68484375 4.82859375 -17.6171875 4.8046875 C-20.18806994 4.75675164 -20.18806994 4.75675164 -22 7 C-21.67 5.68 -21.34 4.36 -21 3 C-18.69 2.34 -16.38 1.68 -14 1 C-14 1.66 -14 2.32 -14 3 C-12.824375 3.185625 -12.824375 3.185625 -11.625 3.375 C-9 4 -9 4 -7 6 C-5.83054208 5.19152271 -4.66449539 4.37810888 -3.5 3.5625 C-2.8503125 3.11003906 -2.200625 2.65757812 -1.53125 2.19140625 C-1.0259375 1.79824219 -0.520625 1.40507812 0 1 C0 0.67 0 0.34 0 0 Z " fill="#919191" transform="translate(108,163)"/>
<path d="M0 0 C9.01766916 3.38114525 17.90517097 6.999199 26.74316406 10.8215332 C28.78692293 11.70343256 30.83478745 12.57532697 32.8828125 13.44726562 C34.18775987 14.00981422 35.49245755 14.57294247 36.796875 15.13671875 C37.96573242 15.63905029 39.13458984 16.14138184 40.33886719 16.65893555 C43 18 43 18 44 20 C43.34 20 42.68 20 42 20 C42 20.66 42 21.32 42 22 C35.89262558 20.23536928 29.92566493 18.30442525 24 16 C24 15.34 24 14.68 24 14 C23.28714844 13.81824219 22.57429688 13.63648438 21.83984375 13.44921875 C14.03329905 11.40039477 7.20098624 8.60049312 0 5 C0 4.34 0 3.68 0 3 C-0.66 2.67 -1.32 2.34 -2 2 C-1.34 1.34 -0.68 0.68 0 0 Z " fill="#535353" transform="translate(90,151)"/>
<path d="M0 0 C3.73487777 0.4979837 5.81237635 0.87491756 9 3 C9 3.66 9 4.32 9 5 C10.05960938 4.91621094 11.11921875 4.83242187 12.2109375 4.74609375 C13.59893625 4.64293168 14.98695835 4.54008337 16.375 4.4375 C17.07367188 4.38142578 17.77234375 4.32535156 18.4921875 4.26757812 C23.7734375 3.88671875 23.7734375 3.88671875 26 5 C26 4.34 26 3.68 26 3 C29.67387495 2.14701624 33.0447393 1.89210529 36.8125 1.9375 C37.78832031 1.94652344 38.76414063 1.95554688 39.76953125 1.96484375 C40.87361328 1.98224609 40.87361328 1.98224609 42 2 C40 5 40 5 37.93701172 5.6159668 C37.10959473 5.72593994 36.28217773 5.83591309 35.4296875 5.94921875 C34.08583984 6.13774414 34.08583984 6.13774414 32.71484375 6.33007812 C31.77769531 6.44802734 30.84054688 6.56597656 29.875 6.6875 C28.93011719 6.81705078 27.98523438 6.94660156 27.01171875 7.08007812 C24.67581054 7.39861106 22.33894047 7.70470481 20 8 C20.66 8.66 21.32 9.32 22 10 C20.93458984 10.18175781 20.93458984 10.18175781 19.84765625 10.3671875 C18.92855469 10.53476563 18.00945312 10.70234375 17.0625 10.875 C15.68771484 11.11863281 15.68771484 11.11863281 14.28515625 11.3671875 C13.53105469 11.57601562 12.77695313 11.78484375 12 12 C11.67 12.66 11.34 13.32 11 14 C11.99 14.33 12.98 14.66 14 15 C14 16.32 14 17.64 14 19 C13.2575 18.62875 12.515 18.2575 11.75 17.875 C9.05716353 16.70484137 9.05716353 16.70484137 6.6875 17.875 C5.8521875 18.431875 5.8521875 18.431875 5 19 C5.33 17.68 5.66 16.36 6 15 C3.03 14.505 3.03 14.505 0 14 C1 12 1 12 3.375 10.875 C6 10 6 10 9 10 C9.66 9.01 10.32 8.02 11 7 C10.360625 6.855625 9.72125 6.71125 9.0625 6.5625 C7 6 7 6 6 5 C5.525625 5.825 5.05125 6.65 4.5625 7.5 C4.046875 8.325 3.53125 9.15 3 10 C2.67 10 2.34 10 2 10 C1.34 6.7 0.68 3.4 0 0 Z M3 3 C3 3.66 3 4.32 3 5 C3.66 5 4.32 5 5 5 C5 4.34 5 3.68 5 3 C4.34 3 3.68 3 3 3 Z M33 3 C33.66 3.66 34.32 4.32 35 5 C35.33 4.34 35.66 3.68 36 3 C35.01 3 34.02 3 33 3 Z M27 4 C27 4.33 27 4.66 27 5 C28.65 5 30.3 5 32 5 C32 4.67 32 4.34 32 4 C30.35 4 28.7 4 27 4 Z M2 13 C6 14 6 14 6 14 Z " fill="#F0F0F0" transform="translate(170,157)"/>
<path d="M0 0 C5.15224471 0.70257882 9.31197572 3.06983323 13.828125 5.47265625 C17.20837218 7.22891511 20.21510734 8.48387827 24 9 C24 9.99 24 10.98 24 12 C24.804375 12.20625 25.60875 12.4125 26.4375 12.625 C30.4066539 14.15695414 33.49057286 16.21700224 36.94921875 18.66015625 C39.05389843 20.15915825 39.05389843 20.15915825 42 21 C42 21.66 42 22.32 42 23 C42.721875 23.28875 43.44375 23.5775 44.1875 23.875 C46.79166667 24.91666667 49.39583333 25.95833333 52 27 C52 28.65 52 30.3 52 32 C51.34515625 31.56429687 50.6903125 31.12859375 50.015625 30.6796875 C38.22599546 22.77409674 38.22599546 22.77409674 25 18 C25.33 17.34 25.66 16.68 26 16 C24.68 16 23.36 16 22 16 C20.53125 14.6640625 20.53125 14.6640625 19 13 C17.52860314 12.07771139 16.02587299 11.20405766 14.5 10.375 C13.33984375 9.73691406 13.33984375 9.73691406 12.15625 9.0859375 C9.91100843 7.89017725 9.91100843 7.89017725 7 7 C7.33 6.67 7.66 6.34 8 6 C5.36 4.68 2.72 3.36 0 2 C0 1.34 0 0.68 0 0 Z " fill="#8D8D8D" transform="translate(192,196)"/>
<path d="M0 0 C-0.33 0.99 -0.66 1.98 -1 3 C-7.09029048 5.33429115 -13.50109414 6.44310722 -20 6 C-20 6.66 -20 7.32 -20 8 C-23.39073724 8.9041966 -26.69532103 9.14892391 -30.1875 9.25 C-31.47720703 9.28867188 -31.47720703 9.28867188 -32.79296875 9.328125 C-33.52128906 9.21984375 -34.24960938 9.1115625 -35 9 C-35.66 8.01 -36.32 7.02 -37 6 C-32.21367054 2.35667459 -27.10305049 2.02225937 -21.3125 1.3125 C-20.36955078 1.18294922 -19.42660156 1.05339844 -18.45507812 0.91992188 C-12.2721789 0.11678239 -6.23148215 -0.16065341 0 0 Z " fill="#2D2D2D" transform="translate(268,154)"/>
<path d="M0 0 C0.33 0.66 0.66 1.32 1 2 C1.75619629 1.9592334 2.51239258 1.9184668 3.29150391 1.87646484 C6.73550524 1.69748026 10.18011667 1.5360785 13.625 1.375 C14.81480469 1.31054688 16.00460938 1.24609375 17.23046875 1.1796875 C18.38417969 1.128125 19.53789062 1.0765625 20.7265625 1.0234375 C22.31331787 0.94488525 22.31331787 0.94488525 23.93212891 0.86474609 C27.27619596 1.01217671 29.88767111 1.80483307 33 3 C33 3.99 33 4.98 33 6 C23.76 7.32 14.52 8.64 5 10 C5 10.66 5 11.32 5 12 C4.34 12 3.68 12 3 12 C3 12.99 3 13.98 3 15 C-1.41225737 16.47075246 -4.48281619 17.36884358 -9 16 C-9 15.67 -9 15.34 -9 15 C-3.555 14.505 -3.555 14.505 2 14 C1.67 12.02 1.34 10.04 1 8 C5.95 7.34 10.9 6.68 16 6 C10.06 5.67 4.12 5.34 -2 5 C-1.34 3.35 -0.68 1.7 0 0 Z " fill="#6E6E6E" transform="translate(199,176)"/>
<path d="M0 0 C0.99 0.33 1.98 0.66 3 1 C3 1.66 3 2.32 3 3 C4.32 2.34 5.64 1.68 7 1 C8.6627026 3.67478244 9.99983813 5.9995144 11 9 C11.66 9.33 12.32 9.66 13 10 C12.01 10.495 12.01 10.495 11 11 C11.33 11.66 11.66 12.32 12 13 C7.545 13.495 7.545 13.495 3 14 C3.99 13.34 4.98 12.68 6 12 C2.98968256 11.06576355 2.13349732 10.95550089 -1 12 C-2.32 12 -3.64 12 -5 12 C-5.66 11.01 -6.32 10.02 -7 9 C-9.55183404 7.79549696 -9.55183404 7.79549696 -12 7 C-12 5.68 -12 4.36 -12 3 C-10.35 3 -8.7 3 -7 3 C-7.66 2.34 -8.32 1.68 -9 1 C-8.030625 1.165 -7.06125 1.33 -6.0625 1.5 C-4.04016429 1.85992293 -4.04016429 1.85992293 -2 2 C-1.34 1.34 -0.68 0.68 0 0 Z M-10 4 C-9.67 4.99 -9.34 5.98 -9 7 C-8.01 7 -7.02 7 -6 7 C-6 6.34 -6 5.68 -6 5 C-7.32 4.67 -8.64 4.34 -10 4 Z M-5 6 C-5 6.99 -5 7.98 -5 9 C-4.01 8.67 -3.02 8.34 -2 8 C-2.99 7.34 -3.98 6.68 -5 6 Z M-2 8 C-1.67 8.99 -1.34 9.98 -1 11 C-1 10.01 -1 9.02 -1 8 C-1.33 8 -1.66 8 -2 8 Z " fill="#8D8D8D" transform="translate(179,175)"/>
<path d="M0 0 C0.66 0 1.32 0 2 0 C1.71576172 0.86044922 1.71576172 0.86044922 1.42578125 1.73828125 C0.93065332 4.36836445 1.26675131 5.6963373 2.1875 8.1875 C2.42855469 8.88230469 2.66960937 9.57710937 2.91796875 10.29296875 C3.88174279 12.20402216 3.88174279 12.20402216 6.11328125 12.73828125 C6.73589844 12.82464844 7.35851562 12.91101563 8 13 C7.67 14.32 7.34 15.64 7 17 C5.02 16.67 3.04 16.34 1 16 C1 14.68 1 13.36 1 12 C0.45472656 11.82984375 -0.09054688 11.6596875 -0.65234375 11.484375 C-6.28384978 9.67459186 -11.63939569 7.49654622 -17 5 C-17 4.34 -17 3.68 -17 3 C-15.85660156 2.86722656 -14.71320313 2.73445312 -13.53515625 2.59765625 C-12.0442438 2.4194969 -10.55335982 2.24109918 -9.0625 2.0625 C-7.93038086 1.93198242 -7.93038086 1.93198242 -6.77539062 1.79882812 C-3.07812542 1.65675901 -3.07812542 1.65675901 0 0 Z " fill="#202020" transform="translate(158,158)"/>
<path d="M0 0 C0 0.99 0 1.98 0 3 C0.33 3.66 0.66 4.32 1 5 C1.41527201 9.67181016 0.69993991 12.17508513 -2 16 C-8.58928571 14.53571429 -8.58928571 14.53571429 -10.4375 12.125 C-11 10 -11 10 -11 6 C-12.32 5.67 -13.64 5.34 -15 5 C-13.35 5 -11.7 5 -10 5 C-10.33 3.68 -10.66 2.36 -11 1 C-7.32589215 -0.17571451 -3.83070817 -0.07366746 0 0 Z M-7 5 C-7.77242269 6.83700789 -7.77242269 6.83700789 -8 9 C-6.64555699 10.77190909 -6.64555699 10.77190909 -5 12 C-2.63019987 9.04622502 -2.63019987 9.04622502 -3 5 C-4.32 5 -5.64 5 -7 5 Z " fill="#989898" transform="translate(170,156)"/>
<path d="M0 0 C5.94 0.33 11.88 0.66 18 1 C18 1.33 18 1.66 18 2 C16.85660156 2.12117187 15.71320313 2.24234375 14.53515625 2.3671875 C13.04421583 2.53597321 11.55333327 2.70527047 10.0625 2.875 C8.93038086 2.99294922 8.93038086 2.99294922 7.77539062 3.11328125 C5.84080701 3.33883808 3.91823981 3.66258974 2 4 C1.67 4.66 1.34 5.32 1 6 C-0.60875 5.938125 -0.60875 5.938125 -2.25 5.875 C-5.81776361 5.99392545 -7.03798717 6.32152606 -10 8 C-14.34921852 9.20811625 -18.52021942 9.07592848 -23 9 C-23 8.01 -23 7.02 -23 6 C-23.66 5.34 -24.32 4.68 -25 4 C-21.95872183 3.66274935 -18.91705809 3.33007668 -15.875 3 C-15.0190625 2.90460938 -14.163125 2.80921875 -13.28125 2.7109375 C-8.82977526 2.23154791 -4.48558075 1.88234542 0 2 C0 1.34 0 0.68 0 0 Z " fill="#A5A5A5" transform="translate(235,152)"/>
<path d="M0 0 C0.33 0.66 0.66 1.32 1 2 C2.175625 1.9071875 2.175625 1.9071875 3.375 1.8125 C4.674375 1.9053125 4.674375 1.9053125 6 2 C6.99 3.485 6.99 3.485 8 5 C8.99 5 9.98 5 11 5 C11.33 5.66 11.66 6.32 12 7 C13.32 7 14.64 7 16 7 C17.69907452 8.63361603 19.36115579 10.30596777 21 12 C23.19208071 13.43338452 25.42337918 14.80835049 27.6875 16.125 C33.78161629 19.67242443 33.78161629 19.67242443 36 23 C31.5240285 21.58078953 27.24573759 19.99799416 23 18 C22.67 17.34 22.34 16.68 22 16 C21.10667969 15.70222656 20.21335937 15.40445313 19.29296875 15.09765625 C15.85042894 13.95014298 13.32134692 12.44759438 10.3125 10.4375 C7.48186691 8.5543264 5.23015525 7.07671842 2 6 C2 5.34 2 4.68 2 4 C1.34 4 0.68 4 0 4 C-0.33 3.01 -0.66 2.02 -1 1 C-0.67 0.67 -0.34 0.34 0 0 Z " fill="#B8B8B8" transform="translate(106,188)"/>
<path d="M0 0 C1.60379341 -0.05416188 3.20811406 -0.09286638 4.8125 -0.125 C5.70582031 -0.14820313 6.59914063 -0.17140625 7.51953125 -0.1953125 C10 0 10 0 13 2 C7.06 2.495 7.06 2.495 1 3 C1.33 3.33 1.66 3.66 2 4 C3.67542976 3.71395102 5.34385343 3.38218767 7 3 C7 4.66666667 7 6.33333333 7 8 C7.99 8 8.98 8 10 8 C10 8.99 10 9.98 10 11 C7.36 10.67 4.72 10.34 2 10 C2.33 10.33 2.66 10.66 3 11 C2.67 11.66 2.34 12.32 2 13 C-2.875 12.125 -2.875 12.125 -4 11 C-4.33 13.31 -4.66 15.62 -5 18 C-5.66 17.67 -6.32 17.34 -7 17 C-7.45374191 11.32822615 -6.65083143 8.4024732 -3 4 C-2.34 4 -1.68 4 -1 4 C-0.67 2.68 -0.34 1.36 0 0 Z " fill="#757575" transform="translate(93,132)"/>
<path d="M0 0 C3.85316963 0.6223813 7.03326299 1.78332354 10.5625 3.4375 C11.95662109 4.08525391 11.95662109 4.08525391 13.37890625 4.74609375 C15.59856174 5.80795576 17.80407922 6.89013114 20 8 C20.7425 8.37125 21.485 8.7425 22.25 9.125 C22.8275 9.41375 23.405 9.7025 24 10 C23.4140625 11.953125 23.4140625 11.953125 22 14 C18.9609375 14.609375 18.9609375 14.609375 15.375 14.75 C13.59222656 14.83507812 13.59222656 14.83507812 11.7734375 14.921875 C10.40058594 14.96054688 10.40058594 14.96054688 9 15 C9.639375 14.896875 10.27875 14.79375 10.9375 14.6875 C11.618125 14.460625 12.29875 14.23375 13 14 C13.33 13.01 13.66 12.02 14 11 C10.7 9.35 7.4 7.7 4 6 C4.66 5.67 5.32 5.34 6 5 C6 4.34 6 3.68 6 3 C4.02 2.34 2.04 1.68 0 1 C0 0.67 0 0.34 0 0 Z " fill="#909090" transform="translate(135,146)"/>
<path d="M0 0 C3 1 3 1 4 3 C4.04022391 5.3329866 4.04320247 7.66706666 4 10 C4.99 10.33 5.98 10.66 7 11 C5.02 11.99 5.02 11.99 3 13 C5.475 13.99 5.475 13.99 8 15 C7.67 16.32 7.34 17.64 7 19 C8.98 19.66 10.96 20.32 13 21 C10 22 10 22 8.0625 21.5 C6.03042001 20.82064214 6.03042001 20.82064214 4.1875 21.5625 C0.79077377 22.24184525 -1.79869869 21.14763632 -5 20 C-5.33 19.34 -5.66 18.68 -6 18 C-5.01 18 -4.02 18 -3 18 C-2.67 17.01 -2.34 16.02 -2 15 C-1.34 15 -0.68 15 0 15 C1.80306232 11.16849256 2.35989587 8.22877647 2 4 C1.10168984 1.69769234 1.10168984 1.69769234 0 0 Z " fill="#474747" transform="translate(168,157)"/>
<path d="M0 0 C2.3125 -0.1875 2.3125 -0.1875 5 0 C6.625 1.5 6.625 1.5 8 3 C8.99 3 9.98 3 11 3 C12 4 13 5 14 6 C16.10332891 6.71447643 16.10332891 6.71447643 18 7 C18 7.66 18 8.32 18 9 C18.70125 9.268125 19.4025 9.53625 20.125 9.8125 C23.1649824 11.0681449 26.0727774 12.50235123 29 14 C29 14.66 29 15.32 29 16 C22.28616333 13.96187101 15.9703147 11.30992871 9.5859375 8.42553711 C6.41279136 7.00262752 3.38877504 5.77210238 0 5 C0 3.35 0 1.7 0 0 Z " fill="#797979" transform="translate(95,145)"/>
<path d="M0 0 C0.66 0 1.32 0 2 0 C2 0.99 2 1.98 2 3 C2.54527344 3.17015625 3.09054688 3.3403125 3.65234375 3.515625 C9.28384978 5.32540814 14.63939569 7.50345378 20 10 C20 11.32 20 12.64 20 14 C21.485 14.495 21.485 14.495 23 15 C22.67 15.66 22.34 16.32 22 17 C21.0925 16.46375 20.185 15.9275 19.25 15.375 C16.17119399 13.64661496 16.17119399 13.64661496 13.625 14.8125 C13.08875 15.204375 12.5525 15.59625 12 16 C11.67 15.01 11.34 14.02 11 13 C12.65 12.34 14.3 11.68 16 11 C13.42047597 9.82421696 10.83696062 8.659209 8.25 7.5 C7.52039063 7.16613281 6.79078125 6.83226562 6.0390625 6.48828125 C5.33007812 6.17246094 4.62109375 5.85664063 3.890625 5.53125 C3.24125977 5.23798828 2.59189453 4.94472656 1.92285156 4.64257812 C-0.29439832 3.78869986 -0.29439832 3.78869986 -4 4 C-0.535 5.485 -0.535 5.485 3 7 C2.67 7.66 2.34 8.32 2 9 C-7.59453303 6.10933941 -7.59453303 6.10933941 -11 3 C-6.87831311 1.37049588 -4.29299643 0.73735399 0 2 C0 1.34 0 0.68 0 0 Z " fill="#8F8F8F" transform="translate(139,160)"/>
<path d="M0 0 C1.98 0.66 3.96 1.32 6 2 C2.7321794 4.17854707 -0.38058265 5.49760034 -4 7 C-3.484375 7.721875 -2.96875 8.44375 -2.4375 9.1875 C-0.78557018 12.4195366 -0.93648325 13.61608307 -2 17 C-2.66 16.01 -3.32 15.02 -4 14 C-3.67 13.67 -3.34 13.34 -3 13 C-4.98 13 -6.96 13 -9 13 C-8.67 13.99 -8.34 14.98 -8 16 C-8.66 16 -9.32 16 -10 16 C-10 12.37 -10 8.74 -10 5 C-12.413125 4.938125 -12.413125 4.938125 -14.875 4.875 C-15.77992187 4.85179687 -16.68484375 4.82859375 -17.6171875 4.8046875 C-20.18806994 4.75675164 -20.18806994 4.75675164 -22 7 C-21.67 5.68 -21.34 4.36 -21 3 C-18.69 2.34 -16.38 1.68 -14 1 C-14 1.66 -14 2.32 -14 3 C-12.824375 3.185625 -12.824375 3.185625 -11.625 3.375 C-9 4 -9 4 -7 6 C-5.83054208 5.19152271 -4.66449539 4.37810888 -3.5 3.5625 C-2.8503125 3.11003906 -2.200625 2.65757812 -1.53125 2.19140625 C-1.0259375 1.79824219 -0.520625 1.40507812 0 1 C0 0.67 0 0.34 0 0 Z " fill="#CFCFCF" transform="translate(108,163)"/>
<path d="M0 0 C0.33 0 0.66 0 1 0 C1 4.62 1 9.24 1 14 C0.01 14 -0.98 14 -2 14 C-1.125 6.375 -1.125 6.375 0 3 C-4.61956981 3.2704673 -4.61956981 3.2704673 -8.625 5.28125 C-10.15588883 7.19486104 -10.89173464 8.87599108 -11.6875 11.1875 C-12.3371875 13.0746875 -12.3371875 13.0746875 -13 15 C-16.3 15.33 -19.6 15.66 -23 16 C-22.34 15.01 -21.68 14.02 -21 13 C-19.68 13 -18.36 13 -17 13 C-16.67 11.35 -16.34 9.7 -16 8 C-15.34 8 -14.68 8 -14 8 C-13.67 6.35 -13.34 4.7 -13 3 C-12.14535156 2.86722656 -11.29070312 2.73445312 -10.41015625 2.59765625 C-9.30542969 2.42105469 -8.20070312 2.24445313 -7.0625 2.0625 C-5.96035156 1.88847656 -4.85820312 1.71445313 -3.72265625 1.53515625 C-1.09573071 1.28154864 -1.09573071 1.28154864 0 0 Z " fill="#BCBCBC" transform="translate(207,144)"/>
<path d="M0 0 C-1.61414251 2.80661297 -2.90822961 4.68968876 -6.11132812 5.60009766 C-8.6595181 5.94084399 -11.18400475 6.15520487 -13.75 6.3125 C-14.63816406 6.38533203 -15.52632812 6.45816406 -16.44140625 6.53320312 C-18.62687474 6.70945058 -20.81170393 6.86426461 -23 7 C-22.67 6.01 -22.34 5.02 -22 4 C-20.35 3.67 -18.7 3.34 -17 3 C-17.33 2.34 -17.66 1.68 -18 1 C-16.12739946 0.63335815 -14.25175307 0.28225634 -12.375 -0.0625 C-11.33085937 -0.25972656 -10.28671875 -0.45695313 -9.2109375 -0.66015625 C-5.89522371 -1.01108946 -3.24598855 -0.6969615 0 0 Z " fill="#4E4E4E" transform="translate(204,164)"/>
<path d="M0 0 C2.48527616 0.41421269 4.5934637 0.77570411 6.8125 2 C10.12151067 3.51269059 13.38832248 3.63883225 17 4 C17 4.33 17 4.66 17 5 C16.2575 5.04125 15.515 5.0825 14.75 5.125 C10.9176007 6.34439978 10.05734223 8.66568673 8 12 C7.34 12 6.68 12 6 12 C5.484375 11.0925 4.96875 10.185 4.4375 9.25 C1.77717228 4.94862721 -2.41331688 3.66610284 -7 2 C-3.28272326 0.86416544 -1.52948291 1.33329974 2 3 C2 2.34 2 1.68 2 1 C1.34 0.67 0.68 0.34 0 0 Z " fill="#797979" transform="translate(172,188)"/>
<path d="M0 0 C3.63 0.66 7.26 1.32 11 2 C11 2.33 11 2.66 11 3 C9.93458984 3.18175781 9.93458984 3.18175781 8.84765625 3.3671875 C7.92855469 3.53476563 7.00945312 3.70234375 6.0625 3.875 C5.14597656 4.03742188 4.22945312 4.19984375 3.28515625 4.3671875 C2.53105469 4.57601562 1.77695313 4.78484375 1 5 C0.67 5.66 0.34 6.32 0 7 C0.99 7.33 1.98 7.66 3 8 C3 9.32 3 10.64 3 12 C2.2575 11.62875 1.515 11.2575 0.75 10.875 C-1.94283647 9.70484137 -1.94283647 9.70484137 -4.3125 10.875 C-5.1478125 11.431875 -5.1478125 11.431875 -6 12 C-5.67 10.68 -5.34 9.36 -5 8 C-7.97 7.505 -7.97 7.505 -11 7 C-10 5 -10 5 -7.625 3.875 C-5 3 -5 3 -2 3 C-1.34 2.01 -0.68 1.02 0 0 Z M-9 6 C-5 7 -5 7 -5 7 Z " fill="#DCDCDC" transform="translate(181,164)"/>
<path d="M0 0 C5.94 0.33 11.88 0.66 18 1 C18 1.99 18 2.98 18 4 C13.83491163 4.67678186 9.66771325 5.33959148 5.5 6 C4.32695312 6.19078125 3.15390625 6.3815625 1.9453125 6.578125 C-4.11308323 7.53113107 -9.86677782 8.24289989 -16 8 C-16 7.67 -16 7.34 -16 7 C-14.87980469 6.79503906 -13.75960937 6.59007812 -12.60546875 6.37890625 C-11.13279176 6.10688311 -9.66013664 5.83474151 -8.1875 5.5625 C-7.44951172 5.42779297 -6.71152344 5.29308594 -5.95117188 5.15429688 C-2.88684924 4.58580263 0.03928953 3.98690349 3 3 C3.33 2.34 3.66 1.68 4 1 C2.68 0.67 1.36 0.34 0 0 Z " fill="#797979" transform="translate(264,153)"/>
<path d="M0 0 C3.99357628 0.5705109 6.57784475 1.92869551 10 4 C10.99 4 11.98 4 13 4 C13 4.66 13 5.32 13 6 C14.65 6.33 16.3 6.66 18 7 C18.33 7.99 18.66 8.98 19 10 C21.00016466 11.20882096 21.00016466 11.20882096 23 12 C23 12.99 23 13.98 23 15 C22.34 15 21.68 15 21 15 C21 14.34 21 13.68 21 13 C20.21625 12.79375 19.4325 12.5875 18.625 12.375 C14.53052719 10.82192411 11.07371251 8.74686137 7.3671875 6.4375 C5.07181021 4.97562456 5.07181021 4.97562456 2.7578125 4 C1 3 1 3 0 0 Z " fill="#CBCBCB" transform="translate(236,183)"/>
<path d="M0 0 C2.3125 -0.1875 2.3125 -0.1875 5 0 C6.625 1.5 6.625 1.5 8 3 C8.99 3 9.98 3 11 3 C12.33333333 4.33333333 13.66666667 5.66666667 15 7 C16.19224439 7.69503036 17.40201967 8.3605995 18.625 9 C21.81356188 10.88951815 22.89877703 11.57397298 24 15 C19.25077763 13.59847107 15.12690148 11.5542057 10.875 9.0625 C9.96427734 8.54139648 9.96427734 8.54139648 9.03515625 8.00976562 C2.65877141 4.32146459 2.65877141 4.32146459 0 2 C0 1.34 0 0.68 0 0 Z " fill="#ABABAB" transform="translate(187,201)"/>
<path d="M0 0 C6.75 -0.125 6.75 -0.125 9 1 C9.90949326 5.29942266 10.15926382 8.74936599 9 13 C11.97 13.495 11.97 13.495 15 14 C15 14.66 15 15.32 15 16 C13.25181409 16.22304441 11.50129677 16.4278645 9.75 16.625 C8.28820312 16.79902344 8.28820312 16.79902344 6.796875 16.9765625 C3.86570607 17.00112537 2.45471036 16.5312717 0 15 C0 14.34 0 13.68 0 13 C1.98 12.34 3.96 11.68 6 11 C6.67673447 7.59679066 6.67673447 7.59679066 7 4 C4.64046906 1.64046906 3.22104383 1.50858587 0 1 C0 0.67 0 0.34 0 0 Z " fill="#333333" transform="translate(89,167)"/>
<path d="M0 0 C0.33 0.66 0.66 1.32 1 2 C2.29035156 1.855625 3.58070312 1.71125 4.91015625 1.5625 C6.62758266 1.37480312 8.3450318 1.18731414 10.0625 1 C10.91005859 0.90460938 11.75761719 0.80921875 12.63085938 0.7109375 C17.45472589 0.18943842 22.14836264 -0.10532727 27 0 C27 0.66 27 1.32 27 2 C26.08476563 2.12117187 25.16953125 2.24234375 24.2265625 2.3671875 C22.44378906 2.61855469 22.44378906 2.61855469 20.625 2.875 C19.44164063 3.03742188 18.25828125 3.19984375 17.0390625 3.3671875 C13.90433341 3.7302585 13.90433341 3.7302585 12 6 C8.9609375 5.9765625 8.9609375 5.9765625 5.375 5.625 C4.18648437 5.51414063 2.99796875 5.40328125 1.7734375 5.2890625 C0.40058594 5.14597656 0.40058594 5.14597656 -1 5 C-0.67 3.35 -0.34 1.7 0 0 Z " fill="#6A6A6A" transform="translate(57,176)"/>
<path d="M0 0 C8.8843026 3.28617412 17.44768569 6.92680284 26 11 C21.94087374 12.35304209 20.22850409 11.15216503 16.3125 9.5625 C15.13300781 9.08941406 13.95351562 8.61632812 12.73828125 8.12890625 C11.83464844 7.75636719 10.93101563 7.38382813 10 7 C10.33 7.66 10.66 8.32 11 9 C8.6568787 8.74438677 6.32156597 8.40729228 4 8 C3.67 7.34 3.34 6.68 3 6 C2.01 5.67 1.02 5.34 0 5 C0 4.34 0 3.68 0 3 C-0.66 2.67 -1.32 2.34 -2 2 C-1.34 1.34 -0.68 0.68 0 0 Z " fill="#BDBDBD" transform="translate(90,151)"/>
<path d="M0 0 C0 1.32 0 2.64 0 4 C0.99 4.33 1.98 4.66 3 5 C-0.39073724 5.9041966 -3.69532103 6.14892391 -7.1875 6.25 C-8.04730469 6.27578125 -8.90710938 6.3015625 -9.79296875 6.328125 C-10.52128906 6.21984375 -11.24960938 6.1115625 -12 6 C-12.66 5.01 -13.32 4.02 -14 3 C-9.43672206 -0.53286034 -5.50366792 -0.32374517 0 0 Z " fill="#424242" transform="translate(245,157)"/>
<path d="M0 0 C5.12775819 0.67744773 9.57614975 2.8416862 14.25 4.9375 C15.07757813 5.29779297 15.90515625 5.65808594 16.7578125 6.02929688 C17.54414063 6.37927734 18.33046875 6.72925781 19.140625 7.08984375 C19.85766602 7.40816162 20.57470703 7.72647949 21.31347656 8.05444336 C23 9 23 9 24 11 C22.35 11.33 20.7 11.66 19 12 C19 11.34 19 10.68 19 10 C18.0409375 9.8453125 18.0409375 9.8453125 17.0625 9.6875 C12.96052405 8.76664826 8.86598565 7.6694029 5 6 C4.67 5.34 4.34 4.68 4 4 C1.98330173 2.86649466 1.98330173 2.86649466 0 2 C0 1.34 0 0.68 0 0 Z " fill="#ADADAD" transform="translate(112,139)"/>
<path d="M0 0 C1.24546405 2.49092811 0.7767578 3.41080733 0 6 C-8.3969326 7.37292913 -16.48627215 8.31274919 -25 8 C-22.46265069 5.46265069 -21.02022561 5.53881919 -17.5 5.0625 C-8.12702446 4.05224672 -8.12702446 4.05224672 0 0 Z " fill="#A9A9A9" transform="translate(85,170)"/>
<path d="M0 0 C5.75 0.75 5.75 0.75 8 3 C10.77260299 4.93798263 10.77260299 4.93798263 13 6 C14.625 7.4375 14.625 7.4375 16 9 C16 9.66 16 10.32 16 11 C12.7 10.01 9.4 9.02 6 8 C6 7.34 6 6.68 6 6 C3.69 5.67 1.38 5.34 -1 5 C-0.67 3.35 -0.34 1.7 0 0 Z " fill="#D8D8D8" transform="translate(154,207)"/>
<path d="M0 0 C0.763125 0.309375 1.52625 0.61875 2.3125 0.9375 C4.18789677 1.67893593 6.08684652 2.36228217 8 3 C8 3.66 8 4.32 8 5 C8.721875 5.28875 9.44375 5.5775 10.1875 5.875 C12.79166667 6.91666667 15.39583333 7.95833333 18 9 C18 10.65 18 12.3 18 14 C17.29875 13.54109375 16.5975 13.0821875 15.875 12.609375 C10.37450479 9.05198951 4.92495554 5.79479035 -1 3 C-0.67 2.01 -0.34 1.02 0 0 Z " fill="#ACACAC" transform="translate(226,214)"/>
<path d="M0 0 C2.64 0.33 5.28 0.66 8 1 C8 1.66 8 2.32 8 3 C9.98 3.99 11.96 4.98 14 6 C13.67 6.66 13.34 7.32 13 8 C15.475 9.98 15.475 9.98 18 12 C14.8180056 12 13.67643887 11.58913558 11 10 C10 9 9 8 8 7 C7.01 6.67 6.02 6.34 5 6 C4.67 5.67 4.34 5.34 4 5 C3.319375 4.34 2.63875 3.68 1.9375 3 C0 1 0 1 0 0 Z " fill="#D8D8D8" transform="translate(112,184)"/>
<path d="M0 0 C0.99 0.33 1.98 0.66 3 1 C3 1.66 3 2.32 3 3 C4.32 2.34 5.64 1.68 7 1 C7.99 2.98 8.98 4.96 10 7 C5.51829499 8.36687861 3.04122331 7.55234071 -1.1875 5.6875 C-2.23292969 5.23761719 -3.27835938 4.78773438 -4.35546875 4.32421875 C-7 3 -7 3 -9 1 C-8.030625 1.165 -7.06125 1.33 -6.0625 1.5 C-4.04016429 1.85992293 -4.04016429 1.85992293 -2 2 C-1.34 1.34 -0.68 0.68 0 0 Z " fill="#D2D2D2" transform="translate(179,175)"/>
<path d="M0 0 C4.75 0.75 4.75 0.75 7 3 C7.375 5.4375 7.375 5.4375 7 8 C5.25 9.875 5.25 9.875 3 11 C0.75 10.6875 0.75 10.6875 -1 10 C-1.33 8.35 -1.66 6.7 -2 5 C0.475 5.495 0.475 5.495 3 6 C3.33 5.01 3.66 4.02 4 3 C2.35 3 0.7 3 -1 3 C-0.67 2.01 -0.34 1.02 0 0 Z " fill="#929292" transform="translate(90,168)"/>
<path d="M0 0 C5.66442374 0.36504064 10.00703705 1.0554321 15 4 C15 4.66 15 5.32 15 6 C16.98 6.66 18.96 7.32 21 8 C21 8.66 21 9.32 21 10 C16.04001528 9.38367054 12.06328034 7.20164371 7.6875 4.9375 C6.94693359 4.56044922 6.20636719 4.18339844 5.44335938 3.79492188 C3.62612478 2.86871843 1.81267596 1.93509371 0 1 C0 0.67 0 0.34 0 0 Z " fill="#626262" transform="translate(120,141)"/>
<path d="M0 0 C6 1.5 6 1.5 12 3 C12 3.66 12 4.32 12 5 C13.65 5 15.3 5 17 5 C17.33 5.66 17.66 6.32 18 7 C10.95188357 9.03612253 6.28987948 6.28711604 0 3 C0 2.01 0 1.02 0 0 Z " fill="#2A2A2A" transform="translate(170,184)"/>
<path d="M0 0 C7.53828658 0.61789234 7.53828658 0.61789234 9.8125 2.5 C10.204375 2.995 10.59625 3.49 11 4 C11.99 4.33 12.98 4.66 14 5 C14 5.66 14 6.32 14 7 C14.99 7.33 15.98 7.66 17 8 C16.67 8.99 16.34 9.98 16 11 C15.34 10.67 14.68 10.34 14 10 C12.33607955 9.32650839 10.66967972 8.6590841 9 8 C9 7.34 9 6.68 9 6 C8.01 6 7.02 6 6 6 C6 5.34 6 4.68 6 4 C5.01 4 4.02 4 3 4 C3 3.34 3 2.68 3 2 C2.01 2 1.02 2 0 2 C0 1.34 0 0.68 0 0 Z " fill="#C1C1C1" transform="translate(287,160)"/>
<path d="M0 0 C0 0.33 0 0.66 0 1 C-6.27 1.99 -12.54 2.98 -19 4 C-19 4.66 -19 5.32 -19 6 C-19.66 6 -20.32 6 -21 6 C-21 6.99 -21 7.98 -21 9 C-25.41225737 10.47075246 -28.48281619 11.36884358 -33 10 C-33 9.67 -33 9.34 -33 9 C-27.555 8.505 -27.555 8.505 -22 8 C-22.33 6.02 -22.66 4.04 -23 2 C-7.25512528 -0.29612756 -7.25512528 -0.29612756 0 0 Z " fill="#CCCCCC" transform="translate(223,182)"/>
<path d="M0 0 C4.68187876 1.31981745 8.00374921 3.19795672 11.875 6.125 C13.32519531 7.21167969 13.32519531 7.21167969 14.8046875 8.3203125 C15.89136719 9.15175781 15.89136719 9.15175781 17 10 C16.67 10.66 16.34 11.32 16 12 C14.08085447 11.06758496 12.16477614 10.12885525 10.25 9.1875 C9.18265625 8.66542969 8.1153125 8.14335937 7.015625 7.60546875 C4.42063753 6.22394044 2.15620225 4.99396373 0 3 C0 2.01 0 1.02 0 0 Z " fill="#B5B5B5" transform="translate(62,182)"/>
<path d="M0 0 C7.59 0 15.18 0 23 0 C23 0.33 23 0.66 23 1 C12.605 2.485 12.605 2.485 2 4 C2 3.01 2 2.02 2 1 C1.34 0.67 0.68 0.34 0 0 Z " fill="#272727" transform="translate(197,181)"/>
<path d="M0 0 C1.79379098 0.44994757 3.58498928 0.91024143 5.375 1.375 C6.37273437 1.63023437 7.37046875 1.88546875 8.3984375 2.1484375 C11 3 11 3 13 5 C9.40919591 6.52800174 7.33120487 7.40862934 3.53125 6.2421875 C1.30527349 5.23486269 -0.85834703 4.17523814 -3 3 C-2.01 2.01 -1.02 1.02 0 0 Z " fill="#262626" transform="translate(115,158)"/>
<path d="M0 0 C2.97 0.495 2.97 0.495 6 1 C6 1.66 6 2.32 6 3 C6.70125 3.268125 7.4025 3.53625 8.125 3.8125 C11.1649824 5.0681449 14.0727774 6.50235123 17 8 C17 8.66 17 9.32 17 10 C11.00067626 8.1668733 5.55079437 5.92678249 0 3 C0 2.01 0 1.02 0 0 Z " fill="#CACACA" transform="translate(107,151)"/>
<path d="M0 0 C5.94 0.33 11.88 0.66 18 1 C18 1.33 18 1.66 18 2 C1.29157175 4.29612756 1.29157175 4.29612756 -7 4 C-6.67 3.34 -6.34 2.68 -6 2 C-4.02 2 -2.04 2 0 2 C0 1.34 0 0.68 0 0 Z " fill="#919191" transform="translate(235,152)"/>
<path d="M0 0 C-0.33 0.66 -0.66 1.32 -1 2 C-1.66 2 -2.32 2 -3 2 C-3 3.65 -3 5.3 -3 7 C-3.33 7 -3.66 7 -4 7 C-4 5.35 -4 3.7 -4 2 C-4.825 2.165 -5.65 2.33 -6.5 2.5 C-10.464838 3.06640543 -13.99725776 3.20013711 -18 3 C-18.66 2.34 -19.32 1.68 -20 1 C-17.41765641 0.63667026 -14.83460218 0.28405133 -12.25 -0.0625 C-11.52039063 -0.16626953 -10.79078125 -0.27003906 -10.0390625 -0.37695312 C-6.3892704 -0.85806208 -3.52327086 -1.04532842 0 0 Z " fill="#E5E5E5" transform="translate(204,169)"/>
<path d="M0 0 C3.85025879 0.60355408 6.86101159 1.76772603 10.3125 3.5625 C11.19550781 4.01753906 12.07851562 4.47257813 12.98828125 4.94140625 C13.65214844 5.29074219 14.31601563 5.64007813 15 6 C14.67 6.99 14.34 7.98 14 9 C11.69 8.67 9.38 8.34 7 8 C7.33 7.34 7.66 6.68 8 6 C5.36 4.68 2.72 3.36 0 2 C0 1.34 0 0.68 0 0 Z " fill="#CFCFCF" transform="translate(192,196)"/>
<path d="M0 0 C1.093125 0.350625 2.18625 0.70125 3.3125 1.0625 C6.90920373 2.33039454 6.90920373 2.33039454 10 1 C10.99 0.67 11.98 0.34 13 0 C13 0.66 13 1.32 13 2 C13.66 2.33 14.32 2.66 15 3 C14.01 3.495 14.01 3.495 13 4 C13.33 4.66 13.66 5.32 14 6 C9.545 6.495 9.545 6.495 5 7 C5.99 6.34 6.98 5.68 8 5 C5.50935112 4.31292445 3.62113708 4 1 4 C0.67 2.68 0.34 1.36 0 0 Z " fill="#D2D2D2" transform="translate(177,182)"/>
<path d="M0 0 C0.66 0 1.32 0 2 0 C1.67 0.99 1.34 1.98 1 3 C-0.65 3.33 -2.3 3.66 -4 4 C-0.535 5.485 -0.535 5.485 3 7 C2.67 7.66 2.34 8.32 2 9 C-7.59453303 6.10933941 -7.59453303 6.10933941 -11 3 C-6.87831311 1.37049588 -4.29299643 0.73735399 0 2 C0 1.34 0 0.68 0 0 Z " fill="#DBDBDB" transform="translate(139,160)"/>
<path d="M0 0 C0.66 0 1.32 0 2 0 C1.67 1.65 1.34 3.3 1 5 C-11.66970387 6.51708428 -11.66970387 6.51708428 -17 4 C-17 3.67 -17 3.34 -17 3 C-15.85660156 2.86722656 -14.71320313 2.73445312 -13.53515625 2.59765625 C-12.0442438 2.4194969 -10.55335982 2.24109918 -9.0625 2.0625 C-7.93038086 1.93198242 -7.93038086 1.93198242 -6.77539062 1.79882812 C-3.07812542 1.65675901 -3.07812542 1.65675901 0 0 Z " fill="#626262" transform="translate(158,158)"/>
<path d="M0 0 C0.97582031 0.00902344 1.95164063 0.01804688 2.95703125 0.02734375 C4.06111328 0.04474609 4.06111328 0.04474609 5.1875 0.0625 C4.1975 1.5475 4.1975 1.5475 3.1875 3.0625 C0.43038731 3.60751065 -2.15402546 3.98799765 -4.9375 4.25 C-6.06865234 4.3727832 -6.06865234 4.3727832 -7.22265625 4.49804688 C-9.08466607 4.6983897 -10.94845811 4.88204036 -12.8125 5.0625 C-12.125 3.125 -12.125 3.125 -10.8125 1.0625 C-7.24777597 -0.11342796 -3.72927808 -0.04493106 0 0 Z M-3.8125 1.0625 C-3.1525 1.7225 -2.4925 2.3825 -1.8125 3.0625 C-1.4825 2.4025 -1.1525 1.7425 -0.8125 1.0625 C-1.8025 1.0625 -2.7925 1.0625 -3.8125 1.0625 Z M-9.8125 2.0625 C-9.8125 2.3925 -9.8125 2.7225 -9.8125 3.0625 C-8.1625 3.0625 -6.5125 3.0625 -4.8125 3.0625 C-4.8125 2.7325 -4.8125 2.4025 -4.8125 2.0625 C-6.4625 2.0625 -8.1125 2.0625 -9.8125 2.0625 Z " fill="#CECECE" transform="translate(206.8125,158.9375)"/>
<path d="M0 0 C1.32 0.99 2.64 1.98 4 3 C4.99 3.33 5.98 3.66 7 4 C6.625 5.9375 6.625 5.9375 6 8 C5.01 8.495 5.01 8.495 4 9 C4.33 9.66 4.66 10.32 5 11 C3.35 10.67 1.7 10.34 0 10 C0 6.7 0 3.4 0 0 Z " fill="#292929" transform="translate(88,141)"/>
<path d="M0 0 C5.28137429 0.51525603 8.57221156 2.25477117 13 5 C12.67 5.99 12.34 6.98 12 8 C10.02 7.34 8.04 6.68 6 6 C6 5.34 6 4.68 6 4 C5.195625 3.71125 4.39125 3.4225 3.5625 3.125 C1 2 1 2 0 0 Z " fill="#7A7A7A" transform="translate(124,191)"/>
<path d="M0 0 C0.33 0.66 0.66 1.32 1 2 C2.175625 1.9071875 2.175625 1.9071875 3.375 1.8125 C4.674375 1.9053125 4.674375 1.9053125 6 2 C6.99 3.485 6.99 3.485 8 5 C8.99 5 9.98 5 11 5 C11.33 5.99 11.66 6.98 12 8 C11.67 8.66 11.34 9.32 11 10 C10.443125 9.71125 9.88625 9.4225 9.3125 9.125 C6.91505355 7.9586747 4.48403061 6.9660119 2 6 C2 5.34 2 4.68 2 4 C1.34 4 0.68 4 0 4 C-0.33 3.01 -0.66 2.02 -1 1 C-0.67 0.67 -0.34 0.34 0 0 Z " fill="#E0E0E0" transform="translate(106,188)"/>
<path d="M0 0 C-0.33 1.32 -0.66 2.64 -1 4 C-0.01 4 0.98 4 2 4 C2 4.99 2 5.98 2 7 C-4.15234375 6.4140625 -4.15234375 6.4140625 -6 6 C-6.33 5.34 -6.66 4.68 -7 4 C-6.01 4 -5.02 4 -4 4 C-4.99 3.67 -5.98 3.34 -7 3 C-6.67 2.01 -6.34 1.02 -6 0 C-3.50907189 -1.24546405 -2.58919267 -0.7767578 0 0 Z " fill="#CACACA" transform="translate(101,136)"/>
<path d="M0 0 C1.32 0.33 2.64 0.66 4 1 C4 1.99 4 2.98 4 4 C4.31669821 6.33564933 4.64820803 8.6693782 5 11 C4.01 11 3.02 11 2 11 C1.34 10.34 0.68 9.68 0 9 C0 7.68 0 6.36 0 5 C-1.32 4.67 -2.64 4.34 -4 4 C-2.35 4 -0.7 4 1 4 C0.67 2.68 0.34 1.36 0 0 Z " fill="#BDBDBD" transform="translate(159,157)"/>
<path d="M0 0 C2.1875 -0.3125 2.1875 -0.3125 5 0 C7.8125 2.5 7.8125 2.5 10 5 C6.42355152 6.2380014 3.66305234 5.74926071 0 5 C0 3.35 0 1.7 0 0 Z " fill="#888888" transform="translate(217,210)"/>
<path d="M0 0 C0.33 0.66 0.66 1.32 1 2 C-4.80766296 3.5056904 -9.9981863 4.21824777 -16 4 C-16 3.01 -16 2.02 -16 1 C-13.98177083 1.03255208 -11.96354167 1.06510417 -9.9453125 1.09765625 C-6.51830434 0.92561769 -3.66076545 -0.07958186 0 0 Z " fill="#D2D2D2" transform="translate(228,157)"/>
<path d="M0 0 C4.29 1.65 8.58 3.3 13 5 C12.67 5.66 12.34 6.32 12 7 C10.54096742 6.69078116 9.08279278 6.37751201 7.625 6.0625 C6.81289062 5.88847656 6.00078125 5.71445313 5.1640625 5.53515625 C3 5 3 5 1 4 C1 3.34 1 2.68 1 2 C0.34 1.67 -0.32 1.34 -1 1 C-0.67 0.67 -0.34 0.34 0 0 Z " fill="#595959" transform="translate(100,157)"/>
<path d="M0 0 C1.670625 0.061875 1.670625 0.061875 3.375 0.125 C3.705 1.115 4.035 2.105 4.375 3.125 C-1.25 5.125 -1.25 5.125 -4.625 5.125 C-4.955 4.135 -5.285 3.145 -5.625 2.125 C-3.625 0.125 -3.625 0.125 0 0 Z " fill="#202020" transform="translate(249.625,155.875)"/>
<path d="M0 0 C3 1 3 1 4 3 C4.04022391 5.3329866 4.04320247 7.66706666 4 10 C4.99 10.33 5.98 10.66 7 11 C5.02 11.99 5.02 11.99 3 13 C3 13.99 3 14.98 3 16 C2.01 16 1.02 16 0 16 C0.50603992 13.83125748 0.99983813 12.00032373 2 10 C2.25797575 6.04437178 2.09440189 3.40340307 0 0 Z " fill="#4E4E4E" transform="translate(168,157)"/>
<path d="M0 0 C2.3125 -0.1875 2.3125 -0.1875 5 0 C6.625 1.5 6.625 1.5 8 3 C8.99 3 9.98 3 11 3 C10.34 4.32 9.68 5.64 9 7 C5.56072421 5.7580393 2.74792181 4.44259716 0 2 C0 1.34 0 0.68 0 0 Z " fill="#D0D0D0" transform="translate(187,201)"/>
<path d="M0 0 C2.475 0.495 2.475 0.495 5 1 C5.33 1.99 5.66 2.98 6 4 C8.00016466 5.20882096 8.00016466 5.20882096 10 6 C10 6.99 10 7.98 10 9 C9.34 9 8.68 9 8 9 C8 8.34 8 7.68 8 7 C6.02 6.34 4.04 5.68 2 5 C2.33 4.34 2.66 3.68 3 3 C2.01 2.01 1.02 1.02 0 0 Z " fill="#D7D7D7" transform="translate(249,189)"/>
<path d="M0 0 C-1.0625 2 -1.0625 2 -3 4 C-6.6875 4.25 -6.6875 4.25 -10 4 C-10 2.68 -10 1.36 -10 0 C-6.42355152 -1.2380014 -3.66305234 -0.74926071 0 0 Z " fill="#2B2B2B" transform="translate(204,164)"/>
<path d="M0 0 C1.37478516 0.01740234 1.37478516 0.01740234 2.77734375 0.03515625 C3.69644531 0.04417969 4.61554688 0.05320313 5.5625 0.0625 C6.27277344 0.07410156 6.98304688 0.08570313 7.71484375 0.09765625 C7.38484375 1.08765625 7.05484375 2.07765625 6.71484375 3.09765625 C3.96484375 3.78515625 3.96484375 3.78515625 0.71484375 4.09765625 C-1.66015625 2.66015625 -1.66015625 2.66015625 -3.28515625 1.09765625 C-2.28515625 0.09765625 -2.28515625 0.09765625 0 0 Z " fill="#1F1F1F" transform="translate(260.28515625,153.90234375)"/>
<path d="M0 0 C4.85963179 0.60745397 8.7405518 2.72758967 13 5 C12.01 5.33 11.02 5.66 10 6 C10 6.66 10 7.32 10 8 C8.02 7.34 6.04 6.68 4 6 C4.66 5.67 5.32 5.34 6 5 C6 4.34 6 3.68 6 3 C4.02 2.34 2.04 1.68 0 1 C0 0.67 0 0.34 0 0 Z " fill="#A4A4A4" transform="translate(135,146)"/>
<path d="M0 0 C1.44096586 0.42594588 2.87768712 0.86626633 4.3125 1.3125 C5.11300781 1.55613281 5.91351563 1.79976562 6.73828125 2.05078125 C9.09964573 3.04182023 10.33879993 4.08074943 12 6 C10.35 6.33 8.7 6.66 7 7 C7 6.34 7 5.68 7 5 C5.8553125 4.814375 5.8553125 4.814375 4.6875 4.625 C2 4 2 4 -1 2 C-0.67 1.34 -0.34 0.68 0 0 Z " fill="#DCDCDC" transform="translate(124,144)"/>
<path d="M0 0 C-0.66 1.65 -1.32 3.3 -2 5 C-3.32 5 -4.64 5 -6 5 C-6.66 3.68 -7.32 2.36 -8 1 C-5.29120665 -0.35439668 -2.99066732 -0.06501451 0 0 Z " fill="#191919" transform="translate(198,177)"/>
<path d="M0 0 C1.95803507 -0.05389087 3.91648909 -0.09274217 5.875 -0.125 C7.51082031 -0.15980469 7.51082031 -0.15980469 9.1796875 -0.1953125 C12 0 12 0 14 2 C7.4916986 3.12643678 7.4916986 3.12643678 4.8125 2.4375 C2.31249982 1.83405168 1.13692058 2.70258393 -1 4 C-0.67 2.68 -0.34 1.36 0 0 Z " fill="#353535" transform="translate(94,134)"/>
<path d="M0 0 C1.46366342 0.39753821 2.9208935 0.81881384 4.375 1.25 C5.18710938 1.48203125 5.99921875 1.7140625 6.8359375 1.953125 C9.45785454 3.2214892 9.99382318 4.32423308 11 7 C8.6568787 6.74438677 6.32156597 6.40729228 4 6 C3.67 5.34 3.34 4.68 3 4 C2.01 3.67 1.02 3.34 0 3 C0 2.01 0 1.02 0 0 Z " fill="#8D8D8D" transform="translate(90,153)"/>
<path d="M0 0 C5.28 0.66 10.56 1.32 16 2 C16 2.33 16 2.66 16 3 C10.06390334 3.89316269 4.93024803 3.97040422 -1 3 C-0.67 2.01 -0.34 1.02 0 0 Z " fill="#B6B6B6" transform="translate(255,150)"/>
<path d="M0 0 C2.31 0.66 4.62 1.32 7 2 C7 2.66 7 3.32 7 4 C5.23086176 4.22226864 3.45955629 4.42733873 1.6875 4.625 C0.70136719 4.74101562 -0.28476563 4.85703125 -1.30078125 4.9765625 C-4 5 -4 5 -7 3 C-5.02 3 -3.04 3 -1 3 C-0.67 2.01 -0.34 1.02 0 0 Z " fill="#D0D0D0" transform="translate(97,179)"/>
<path d="M0 0 C-0.33 0.99 -0.66 1.98 -1 3 C-7.75 2.25 -7.75 2.25 -10 0 C-6.22996568 -2.61002376 -4.07631429 -1.66758312 0 0 Z " fill="#262626" transform="translate(115,157)"/>
<path d="M0 0 C1.9375 0.75 1.9375 0.75 4 2 C4.33 3.32 4.66 4.64 5 6 C2.03 6 -0.94 6 -4 6 C-3.34 4.68 -2.68 3.36 -2 2 C-1.34 2 -0.68 2 0 2 C0 1.34 0 0.68 0 0 Z " fill="#868686" transform="translate(108,132)"/>
<path d="M0 0 C1.86323318 0.25288812 3.71708432 0.57690153 5.5625 0.9375 C6.57441406 1.13214844 7.58632812 1.32679688 8.62890625 1.52734375 C9.80259766 1.76130859 9.80259766 1.76130859 11 2 C11 2.33 11 2.66 11 3 C7.37 3.66 3.74 4.32 0 5 C-0.33 3.68 -0.66 2.36 -1 1 C-0.67 0.67 -0.34 0.34 0 0 Z " fill="#999999" transform="translate(181,164)"/>
<path d="M0 0 C1.134375 0.495 2.26875 0.99 3.4375 1.5 C6.50937064 3.06467617 6.50937064 3.06467617 8 3 C8 4.65 8 6.3 8 8 C4.7 6.02 1.4 4.04 -2 2 C-1.34 1.34 -0.68 0.68 0 0 Z " fill="#D7D7D7" transform="translate(236,220)"/>
<path d="M0 0 C5.94 0.99 5.94 0.99 12 2 C12 2.33 12 2.66 12 3 C11.2575 3.061875 10.515 3.12375 9.75 3.1875 C6.1814261 4.24185138 5.07754772 5.99909773 3 9 C3.0928125 7.6078125 3.0928125 7.6078125 3.1875 6.1875 C3.33477709 2.67041325 3.33477709 2.67041325 0 0 Z " fill="#C6C6C6" transform="translate(177,190)"/>
<path d="M0 0 C4.84659077 0.59104765 8.60748167 1.97944157 13 4 C13 4.33 13 4.66 13 5 C8.13761177 5.34731345 5.17281491 4.52309739 1 2 C0.67 1.34 0.34 0.68 0 0 Z " fill="#282828" transform="translate(145,167)"/>
<path d="M0 0 C1.4835001 0.42257276 2.96176424 0.86356322 4.4375 1.3125 C5.67306641 1.67794922 5.67306641 1.67794922 6.93359375 2.05078125 C7.61550781 2.36402344 8.29742187 2.67726562 9 3 C9.33 3.99 9.66 4.98 10 6 C6.05879291 5.43697042 3.2491277 4.3208055 0 2 C0 1.34 0 0.68 0 0 Z " fill="#585858" transform="translate(145,203)"/>
<path d="M0 0 C0.66 0 1.32 0 2 0 C2.433125 0.45375 2.86625 0.9075 3.3125 1.375 C5.35628817 3.34309231 7.34530324 4.06726871 10 5 C10 5.66 10 6.32 10 7 C6.97580475 6.41196203 3.98241547 5.77321882 1 5 C0.67 3.35 0.34 1.7 0 0 Z " fill="#222222" transform="translate(164,184)"/>
<path d="M0 0 C2.75 2.4375 2.75 2.4375 5 5 C3.3125 5.6875 3.3125 5.6875 1 6 C-1.75 4.6875 -1.75 4.6875 -4 3 C-4 2.34 -4 1.68 -4 1 C-2.3125 0.1875 -2.3125 0.1875 0 0 Z " fill="#8F8F8F" transform="translate(248,187)"/>
<path d="M0 0 C2.97 0.495 2.97 0.495 6 1 C6 1.66 6 2.32 6 3 C5.01 3 4.02 3 3 3 C3 3.66 3 4.32 3 5 C3.66 5 4.32 5 5 5 C4.34 6.65 3.68 8.3 3 10 C2.67 10 2.34 10 2 10 C1.34 6.7 0.68 3.4 0 0 Z " fill="#CBCBCB" transform="translate(170,157)"/>
<path d="M0 0 C2.31 0 4.62 0 7 0 C7 0.99 7 1.98 7 3 C7.33 3.66 7.66 4.32 8 5 C8.039992 6.99960012 8.04346799 9.00047242 8 11 C7.67 11 7.34 11 7 11 C6.773125 9.906875 6.54625 8.81375 6.3125 7.6875 C5.35055561 3.87265531 5.35055561 3.87265531 2.375 2.125 C1.59125 1.75375 0.8075 1.3825 0 1 C0 0.67 0 0.34 0 0 Z " fill="#B9B9B9" transform="translate(163,156)"/>
<path d="M0 0 C2.97 0.33 5.94 0.66 9 1 C8 4 8 4 6.1875 4.9375 C4 5 4 5 1.75 3.125 C0 1 0 1 0 0 Z " fill="#A8A8A8" transform="translate(205,203)"/>
<path d="M0 0 C1.98 0.99 1.98 0.99 4 2 C3.67 4.31 3.34 6.62 3 9 C2.34 9 1.68 9 1 9 C0.67 6.03 0.34 3.06 0 0 Z " fill="#3F3F3F" transform="translate(177,191)"/>
<path d="M0 0 C1.423125 0.2784375 1.423125 0.2784375 2.875 0.5625 C5.89868793 1.28686632 5.89868793 1.28686632 8 0 C7.3125 1.9375 7.3125 1.9375 6 4 C3.375 4.75 3.375 4.75 1 5 C0.67 3.35 0.34 1.7 0 0 Z " fill="#707070" transform="translate(161,166)"/>
<path d="M0 0 C2.66666667 0.66666667 5.33333333 1.33333333 8 2 C8 2.99 8 3.98 8 5 C5.23723823 4.47731534 2.6739124 3.89130413 0 3 C0 2.01 0 1.02 0 0 Z " fill="#1B1B1B" transform="translate(170,184)"/>
<path d="M0 0 C3.3 0 6.6 0 10 0 C7.60236815 2.39763185 6.66726502 2.34280586 3.375 2.625 C2.55773437 2.69976562 1.74046875 2.77453125 0.8984375 2.8515625 C0.27195313 2.90054688 -0.35453125 2.94953125 -1 3 C-0.67 2.01 -0.34 1.02 0 0 Z " fill="#282828" transform="translate(182,168)"/>
<path d="M0 0 C0 0.66 0 1.32 0 2 C0.99 2.33 1.98 2.66 3 3 C2.67 3.99 2.34 4.98 2 6 C1.34 5.67 0.68 5.34 0 5 C-1.66392045 4.32650839 -3.33032028 3.6590841 -5 3 C-5 2.34 -5 1.68 -5 1 C-3 0 -3 0 0 0 Z " fill="#DADADA" transform="translate(301,165)"/>
<path d="M0 0 C4.21878192 -0.19622241 7.17010894 0.19769832 11 2 C10.34 2.66 9.68 3.32 9 4 C5.15822926 3.69670231 2.90572328 2.47524576 0 0 Z " fill="#3F3F3F" transform="translate(133,163)"/>
<path d="M0 0 C2.23915424 0.73602403 2.23915424 0.73602403 5.0625 -0.5 C5.7225 0.16 6.3825 0.82 7.0625 1.5 C6.0725 1.5 5.0825 1.5 4.0625 1.5 C3.7325 2.49 3.4025 3.48 3.0625 4.5 C2.7325 3.84 2.4025 3.18 2.0625 2.5 C0.4125 2.5 -1.2375 2.5 -2.9375 2.5 C-3.2675 1.84 -3.5975 1.18 -3.9375 0.5 C-1.9375 -0.5 -1.9375 -0.5 0 0 Z " fill="#B8B8B8" transform="translate(133.9375,197.5)"/>
<path d="M0 0 C0.99 0.33 1.98 0.66 3 1 C3 1.66 3 2.32 3 3 C4.32 2.34 5.64 1.68 7 1 C7.33 1.99 7.66 2.98 8 4 C6.375 4.6875 6.375 4.6875 4 5 C0.75 3.5625 0.75 3.5625 -2 2 C-1.34 1.34 -0.68 0.68 0 0 Z " fill="#EFEFEF" transform="translate(179,175)"/>
<path d="M0 0 C1.24546405 2.49092811 0.7767578 3.41080733 0 6 C-1.32 6 -2.64 6 -4 6 C-4 5.34 -4 4.68 -4 4 C-4.99 3.67 -5.98 3.34 -7 3 C-4.69 2.01 -2.38 1.02 0 0 Z " fill="#C6C6C6" transform="translate(85,170)"/>
<path d="M0 0 C1.98 0.66 3.96 1.32 6 2 C6 2.66 6 3.32 6 4 C3 5 3 5 0 4 C-0.33 5.32 -0.66 6.64 -1 8 C-1.125 2.25 -1.125 2.25 0 0 Z " fill="#C8C8C8" transform="translate(88,169)"/>
<path d="M0 0 C-0.33 0.99 -0.66 1.98 -1 3 C-7.0546875 3.1953125 -7.0546875 3.1953125 -9 3 C-9.66 2.34 -10.32 1.68 -11 1 C-7.27569643 0.30710631 -3.78916254 -0.11144596 0 0 Z " fill="#C4C4C4" transform="translate(195,169)"/>
<path d="M0 0 C2.46278801 1.231394 3.42497687 2.78064923 5 5 C3.1875 5.625 3.1875 5.625 1 6 C0.01 5.34 -0.98 4.68 -2 4 C-1.34 2.68 -0.68 1.36 0 0 Z " fill="#D9D9D9" transform="translate(91,139)"/>
<path d="M0 0 C4.29 0.66 8.58 1.32 13 2 C12.67 2.66 12.34 3.32 12 4 C7.01137151 4.29344873 4.03770942 4.05887078 0 1 C0 0.67 0 0.34 0 0 Z " fill="#868686" transform="translate(114,138)"/>
<path d="M0 0 C1.60379341 -0.05416188 3.20811406 -0.09286638 4.8125 -0.125 C5.70582031 -0.14820313 6.59914063 -0.17140625 7.51953125 -0.1953125 C10 0 10 0 13 2 C11.73542969 2.09087891 11.73542969 2.09087891 10.4453125 2.18359375 C9.34960938 2.26738281 8.25390625 2.35117188 7.125 2.4375 C6.03445312 2.51871094 4.94390625 2.59992188 3.8203125 2.68359375 C1.05271029 2.83001703 1.05271029 2.83001703 -1 4 C-0.67 2.68 -0.34 1.36 0 0 Z " fill="#DFDFDF" transform="translate(93,132)"/>
<path d="M0 0 C0.33 1.65 0.66 3.3 1 5 C-1.375 4.6875 -1.375 4.6875 -4 4 C-4.66 3.01 -5.32 2.02 -6 1 C-3.92446352 0.4465236 -2.15634036 0 0 0 Z " fill="#929292" transform="translate(122,195)"/>
<path d="M0 0 C1.65 0 3.3 0 5 0 C5 0.33 5 0.66 5 1 C6.65 1.33 8.3 1.66 10 2 C10 2.33 10 2.66 10 3 C6.7 3.33 3.4 3.66 0 4 C0 2.66666667 0 1.33333333 0 0 Z " fill="#454545" transform="translate(186,188)"/>
<path d="M0 0 C2.31 0.33 4.62 0.66 7 1 C4.38058783 2.74627478 2.96175123 3.38722388 0 4 C0 2.68 0 1.36 0 0 Z " fill="#434343" transform="translate(121,161)"/>
<path d="M0 0 C0 0.99 0 1.98 0 3 C-6.435 3.495 -6.435 3.495 -13 4 C-8.9083869 1.95419345 -4.65704046 0 0 0 Z " fill="#2B2B2B" transform="translate(160,158)"/>
<path d="M0 0 C2.64 0 5.28 0 8 0 C6.515 1.98 6.515 1.98 5 4 C3.35 3.67 1.7 3.34 0 3 C0 2.01 0 1.02 0 0 Z " fill="#8A8A8A" transform="translate(145,152)"/>
<path d="M0 0 C1.98 0 3.96 0 6 0 C6.33 0.99 6.66 1.98 7 3 C6.67 3.66 6.34 4.32 6 5 C4 4 2 3 0 2 C0 1.34 0 0.68 0 0 Z " fill="#BCBCBC" transform="translate(111,193)"/>
<path d="M0 0 C1.98 0.66 3.96 1.32 6 2 C6 2.99 6 3.98 6 5 C3 5 3 5 0 3 C0 2.01 0 1.02 0 0 Z " fill="#DFDFDF" transform="translate(62,182)"/>
<path d="M0 0 C2.00720923 0.28674418 4.0085944 0.61866701 6 1 C6 1.99 6 2.98 6 4 C3.03824877 3.38722388 1.61941217 2.74627478 -1 1 C-0.67 0.67 -0.34 0.34 0 0 Z " fill="#1A1A1A" transform="translate(102,153)"/>
<path d="M0 0 C0.33 0.99 0.66 1.98 1 3 C-3.29 2.34 -7.58 1.68 -12 1 C-7.01222852 -1.49388574 -5.33016752 -0.88836125 0 0 Z " fill="#E8E8E8" transform="translate(276,150)"/>
<path d="M0 0 C2.97 0 5.94 0 9 0 C9.33 1.32 9.66 2.64 10 4 C9.01 4.495 9.01 4.495 8 5 C8 4.34 8 3.68 8 3 C7.05125 2.87625 6.1025 2.7525 5.125 2.625 C2 2 2 2 0 0 Z " fill="#AFAFAF" transform="translate(101,137)"/>
<path d="M0 0 C0.99 0.33 1.98 0.66 3 1 C2.34 1 1.68 1 1 1 C1 1.99 1 2.98 1 4 C1.99 4.33 2.98 4.66 4 5 C3.01 5.495 3.01 5.495 2 6 C-0.625 4.5625 -0.625 4.5625 -3 3 C-2.01 2.01 -1.02 1.02 0 0 Z " fill="#393939" transform="translate(169,183)"/>
<path d="M0 0 C2.97 0 5.94 0 9 0 C9 0.99 9 1.98 9 3 C2.84765625 2.4140625 2.84765625 2.4140625 1 2 C0.67 1.34 0.34 0.68 0 0 Z " fill="#B4B4B4" transform="translate(94,140)"/>
<path d="M0 0 C1.9375 0.3125 1.9375 0.3125 4 1 C4.33 1.99 4.66 2.98 5 4 C3.02 4.33 1.04 4.66 -1 5 C-0.67 3.35 -0.34 1.7 0 0 Z " fill="#AFAFAF" transform="translate(154,207)"/>
<path d="M0 0 C2.97 0.495 2.97 0.495 6 1 C5.67 1.99 5.34 2.98 5 4 C2.69 3.67 0.38 3.34 -2 3 C-1.34 2.67 -0.68 2.34 0 2 C0 1.34 0 0.68 0 0 Z " fill="#BEBEBE" transform="translate(201,201)"/>
<path d="M0 0 C2.97 0.495 2.97 0.495 6 1 C6 1.99 6 2.98 6 4 C4.35 4 2.7 4 1 4 C0.67 2.68 0.34 1.36 0 0 Z " fill="#A7A7A7" transform="translate(107,151)"/>
<path d="M0 0 C2 1 2 1 2 1 Z " fill="#FFFFFF" transform="translate(137,203)"/>
<path d="M0 0 C2 1 2 1 2 1 Z " fill="#FFFFFF" transform="translate(62,186)"/>
<path d="M0 0 C2 1 2 1 2 1 Z " fill="#FFFFFF" transform="translate(164,162)"/>
<path d="" fill="#FFFFFF" transform="translate(0,0)"/>
<path d="" fill="#FFFFFF" transform="translate(0,0)"/>
<path d="" fill="#FFFFFF" transform="translate(0,0)"/>
<path d="" fill="#FFFFFF" transform="translate(0,0)"/>
<path d="" fill="#FFFFFF" transform="translate(0,0)"/>
<path d="" fill="#FFFFFF" transform="translate(0,0)"/>
<path d="" fill="#FFFFFF" transform="translate(0,0)"/>
<path d="" fill="#FFFFFF" transform="translate(0,0)"/>
<path d="" fill="#FFFFFF" transform="translate(0,0)"/>
<path d="" fill="#FFFFFF" transform="translate(0,0)"/>
<path d="" fill="#FFFFFF" transform="translate(0,0)"/>
<path d="" fill="#FFFFFF" transform="translate(0,0)"/>
<path d="" fill="#FFFFFF" transform="translate(0,0)"/>
<path d="" fill="#FFFFFF" transform="translate(0,0)"/>
<path d="" fill="#FFFFFF" transform="translate(0,0)"/>
<path d="" fill="#FFFFFF" transform="translate(0,0)"/>
<path d="" fill="#FFFFFF" transform="translate(0,0)"/>
<path d="" fill="#FFFFFF" transform="translate(0,0)"/>
<path d="" fill="#FFFFFF" transform="translate(0,0)"/>
<path d="" fill="#FFFFFF" transform="translate(0,0)"/>
<path d="" fill="#FFFFFF" transform="translate(0,0)"/>
<path d="" fill="#FFFFFF" transform="translate(0,0)"/>
<path d="" fill="#FFFFFF" transform="translate(0,0)"/>
<path d="" fill="#FFFFFF" transform="translate(0,0)"/>
<path d="" fill="#FFFFFF" transform="translate(0,0)"/>
<path d="" fill="#FFFFFF" transform="translate(0,0)"/>
<path d="" fill="#FFFFFF" transform="translate(0,0)"/>
<path d="" fill="#FFFFFF" transform="translate(0,0)"/>
<path d="" fill="#FFFFFF" transform="translate(0,0)"/>
<path d="" fill="#FFFFFF" transform="translate(0,0)"/>
<path d="" fill="#FFFFFF" transform="translate(0,0)"/>
<path d="" fill="#FFFFFF" transform="translate(0,0)"/>
<path d="" fill="#FFFFFF" transform="translate(0,0)"/>
<path d="" fill="#FFFFFF" transform="translate(0,0)"/>
<path d="" fill="#FFFFFF" transform="translate(0,0)"/>
<path d="" fill="#FFFFFF" transform="translate(0,0)"/>
<path d="" fill="#FFFFFF" transform="translate(0,0)"/>
<path d="" fill="#FFFFFF" transform="translate(0,0)"/>
<path d="" fill="#FFFFFF" transform="translate(0,0)"/>
<path d="" fill="#FFFFFF" transform="translate(0,0)"/>
</svg>
